<?xml version="1.0" encoding="utf-8"?>
<!-- Generator: Adobe Illustrator 27.6.1, SVG Export Plug-In . SVG Version: 6.00 Build 0)  -->
<svg version="1.1" id="Capa_2_00000086679481813926692070000004345417060161828526_"
	 xmlns="http://www.w3.org/2000/svg" xmlns:xlink="http://www.w3.org/1999/xlink" x="0px" y="0px" viewBox="0 0 328 232.3"
	 style="enable-background:new 0 0 328 232.3;" xml:space="preserve">
<style type="text/css">
	.st0{fill:none;}
	.st1{fill:#890076;}
	.st2{fill:#FFFFFF;}
	.st3{fill:#C100B8;}
</style>
<g id="Object">
	<rect x="8.3" y="63" class="st0" width="6.3" height="21.5"/>
	<path class="st0" d="M104.3,133.2c0,37,30,67,67,67s67-30,67-67s-30-67-67-67S104.3,96.2,104.3,133.2z M216,133.2
		c0,24.7-20,44.7-44.7,44.7s-44.7-20-44.7-44.7s20-44.7,44.7-44.7S216,108.5,216,133.2L216,133.2z"/>
	<path class="st1" d="M32.5,232.3h277.7c9.9,0,17.9-8,17.9-17.8V42.7c0-9.9-8-17.9-17.9-17.9H302v-7.9c0-1.6-1.3-2.8-2.9-2.8h-44.3
		c-1.6,0-2.8,1.3-2.8,2.8v7.9h-33.5L204.3,3.3c0-1.8-1.7-3.3-3.8-3.3h-58.2c-2.1,0-3.8,1.5-3.8,3.3l-14.2,21.6H32.5
		c-9.9,0-17.9,8-17.9,17.9v11.9H7.5C3.4,54.6,0,58,0,62.2v23c0,4.2,3.4,7.5,7.5,7.5h7.1v121.7C14.6,224.3,22.6,232.3,32.5,232.3
		L32.5,232.3z M229.5,47.3h73.9v27h-73.9C229.5,74.4,229.5,47.3,229.5,47.3z M171.3,66.2c37,0,67,30,67,67s-30,67-67,67
		s-67-30-67-67S134.3,66.2,171.3,66.2z M8.3,84.4V63h6.3v21.5L8.3,84.4L8.3,84.4z"/>
	<path class="st1" d="M126.6,133.2c0,24.7,20,44.7,44.7,44.7s44.7-20,44.7-44.7s-20-44.7-44.7-44.7S126.6,108.5,126.6,133.2
		L126.6,133.2z"/>
	<rect x="229.5" y="47.3" class="st2" width="36.9" height="27"/>
	<rect x="266.5" y="47.3" class="st3" width="36.9" height="27"/>
</g>
</svg>
