<?xml version="1.0" encoding="UTF-8"?><svg id="Capa_2" xmlns="http://www.w3.org/2000/svg" viewBox="0 0 55.38 80.05"><defs><style>.cls-1{fill:#0f202b;}</style></defs><g id="Capa_1-2"><path class="cls-1" d="m47.05,32.58c2.77-4.44,4.37-9.6,4.37-14.53C51.42,2.34,36.41,0,27.47,0c-6.83,0-12.27,1.24-16.16,3.7-4.81,3.04-7.36,8-7.36,14.35,0,4.93,1.6,10.09,4.37,14.53C3.19,37.6,0,44.61,0,52.36c0,15.29,12.4,27.69,27.69,27.69s27.69-12.4,27.69-27.69c0-7.75-3.19-14.76-8.33-19.79ZM9.89,18.05c0-5.2,1.82-12.12,17.58-12.12,18.02,0,18.02,9.12,18.02,12.12,0,3.62-1.15,7.47-3.12,10.84-4.26-2.67-9.28-4.21-14.68-4.21s-10.42,1.55-14.68,4.21c-1.98-3.37-3.12-7.22-3.12-10.84Z"/></g></svg>