<?xml version="1.0" encoding="UTF-8"?><svg id="Capa_2" xmlns="http://www.w3.org/2000/svg" viewBox="0 0 708.78 708.77"><defs><style>.cls-1{fill:#36a9e1;}.cls-2{fill:#f6f6f6;}.cls-3{fill:#ffd300;}</style></defs><g id="Capa_1-2"><path class="cls-1" d="m10.47,269.27C57.47,79.27,249.57-36.55,439.51,10.46c189.98,47,305.8,239.07,258.81,429.03-47.01,189.96-239.09,305.83-429.06,258.81C79.31,651.31-36.57,459.22,10.47,269.27"/><path class="cls-1" d="m20.66,235.37h667.48c-38.63-108.03-128.89-195.28-248.62-224.9C261.15-33.68,80.89,65.76,20.66,235.37"/><path class="cls-2" d="m701.13,427.23c.16-.76.31-1.51.47-2.26.27-1.32.53-2.63.78-3.95.15-.76.29-1.53.43-2.29.25-1.36.5-2.72.73-4.09.12-.68.24-1.37.36-2.06.28-1.7.56-3.41.82-5.11.05-.34.11-.67.16-1.01.31-2.05.59-4.09.86-6.14.07-.54.14-1.08.2-1.62.19-1.5.37-3,.55-4.5.08-.72.16-1.43.23-2.14.15-1.34.29-2.69.42-4.03.07-.74.14-1.48.21-2.23.12-1.36.23-2.72.34-4.07.06-.69.11-1.38.16-2.07.12-1.56.21-3.12.31-4.68.03-.47.06-.94.09-1.42.11-2.05.21-4.09.29-6.14.01-.33.02-.66.03-1,.06-1.69.11-3.39.14-5.08.01-.64.02-1.28.03-1.93.02-1.4.03-2.79.04-4.18,0-.7,0-1.41,0-2.11,0-1.36-.02-2.73-.04-4.09,0-.67-.02-1.35-.03-2.02-.03-1.49-.07-2.99-.13-4.48-.02-.52-.03-1.04-.05-1.55-.15-4.05-.37-8.1-.67-12.13-.04-.53-.08-1.06-.12-1.59-.12-1.48-.24-2.95-.36-4.42-.06-.64-.12-1.28-.18-1.92-.13-1.39-.27-2.78-.42-4.16-.07-.64-.14-1.27-.21-1.9-.16-1.48-.34-2.95-.52-4.41-.07-.51-.13-1.03-.2-1.55-.52-4.02-1.11-8.02-1.77-12-.06-.36-.12-.72-.18-1.07-.27-1.61-.55-3.22-.84-4.82-.1-.55-.2-1.1-.31-1.64-.27-1.44-.54-2.88-.83-4.31-.11-.57-.23-1.14-.34-1.71-.3-1.47-.62-2.94-.94-4.4-.11-.49-.21-.98-.32-1.46-.4-1.8-.82-3.59-1.24-5.38l-.1-.4c-.45-1.88-.92-3.75-1.4-5.62h-.01c-2.68-10.38-5.83-20.62-9.42-30.67H20.66c-3.91,11.01-7.32,22.31-10.19,33.9-11.77,47.54-13.32,95.22-6.07,140.72.03.2.07.4.1.6.27,1.67.55,3.32.84,4.98.06.35.13.7.19,1.05.28,1.55.56,3.1.86,4.65.09.46.18.92.27,1.38.29,1.46.58,2.92.89,4.37.11.55.23,1.1.35,1.65.3,1.38.59,2.76.91,4.13.14.64.3,1.28.45,1.92.3,1.29.6,2.58.91,3.86.24.98.5,1.94.74,2.91.37,1.46.75,2.91,1.14,4.36.38,1.43.77,2.86,1.17,4.28.18.63.37,1.25.55,1.88.38,1.35.78,2.7,1.18,4.05.19.63.39,1.26.58,1.89.41,1.34.82,2.68,1.26,4.02.2.62.4,1.24.6,1.85.44,1.34.88,2.69,1.34,4.03.2.6.41,1.21.62,1.81.47,1.35.94,2.7,1.42,4.04.11.31.22.63.33.94h0c.3.83.6,1.66.9,2.49h664.77c.3-.82.58-1.66.88-2.49h.05c.75-2.07,1.45-4.17,2.16-6.26.07-.21.14-.41.21-.61.92-2.73,1.8-5.49,2.66-8.26.12-.39.25-.77.37-1.16.8-2.59,1.55-5.19,2.29-7.81.15-.55.32-1.09.47-1.64.86-3.11,1.69-6.25,2.47-9.41.5-2.04.98-4.08,1.45-6.12.15-.65.29-1.31.44-1.96.31-1.4.62-2.8.91-4.19"/><path class="cls-3" d="m352.07,305.15l2.32.02,1.69.02,1.66.02.6-.18c-.2-.38-.36-.77-.49-1.17-.54-1.66-.58-3.46-.71-5.16.01-3.8.52-7.54.86-11.32.2-2.07.19-4.18.15-6.28-.12-3.2-1.16-6.57-3.66-8.74l.42,3.61c.05,1.97-.16,3.91-.52,5.83-.52,2.81-1.37,5.57-2.16,8.32-1.06,3.74-2.15,7.54-2.12,11.47l.31,3.39,1.65.17Z"/><path class="cls-3" d="m332.39,291.18l.25,5.95c.18,3.81.71,7.76,2.62,11.14l.52.44c4.7-1.82,9.63-3.11,14.68-3.43l-.99-2.43c-1.09-3.06-1.42-6.28-1.62-9.47-.33-4.33-.28-8.74-1.42-12.98-.71-2.8-2.26-5.47-4.73-7.03l.71,2.41c.64,2.67.81,5.47.59,8.21-.21,4.24-1.07,8.41-1.31,12.63-.25,3.24-.03,6.55,1.15,9.61l-2.3-3.86c-2.58-6.19-2.8-13.06-5.34-19.23-1.15-2.91-3.19-5.59-6.12-6.83,1.77,2.93,2.65,6.35,3.01,9.74l.31,5.14Z"/><path class="cls-3" d="m311.97,296.09c1.8,3.93,2.98,8.11,4.65,12.08,1.33,3.23,3.11,6.4,5.82,8.7,3.72-3.16,7.87-5.77,12.33-7.7l.81-.43-.63.05.46-.13-3.34-4.28c-3.17-5.53-4.5-11.9-7.79-17.36-1.62-2.62-4.01-5.07-7.12-5.75,2.28,2.61,3.61,5.91,4.51,9.22,1.12,4.13,1.66,8.39,2.7,12.51.6,2.5,1.41,4.95,2.74,7.16l1.4,2-4.35-4.17c-3.75-4.87-6.04-10.71-10.01-15.42-2.01-2.37-4.76-4.35-7.99-4.59,2.57,2.16,4.41,5.09,5.81,8.13Z"/><path class="cls-3" d="m296.43,312.51c3.45,3.81,6.2,8.2,9.86,11.81,1.77,1.76,3.79,3.38,6.16,4.22,2.69-4.37,6.09-8.32,9.99-11.66l-4.87-3.34c-4.69-4.31-7.91-9.93-12.76-14.07-2.1-1.76-4.73-3.16-7.52-3.16-.3,0-.59.02-.89.05l4.16,3.45c3.78,4.17,6.03,9.39,8.89,14.17,1.42,2.3,2.93,4.59,4.96,6.44l2.34,1.82-3.98-1.71c-5.9-3.52-10.16-9.12-16.01-12.66-1.98-1.17-4.26-2-6.55-2-.74,0-1.48.09-2.21.27,3.32,1.31,6.06,3.71,8.41,6.37Z"/><path class="cls-3" d="m296.87,327.75c2.42,2.21,4.87,4.45,7.75,6.04l2.44.91,1.86.7,1.07-2.12,1.87-3.7.47-1.05c-2.28-.17-4.45-1.06-6.52-2.05-3.27-1.68-6.31-3.8-9.45-5.77-2.6-1.6-5.28-3.18-8.29-3.93-.98-.26-2.01-.4-3.03-.4-1.28,0-2.56.22-3.74.72,2.64.63,5.07,1.88,7.26,3.43,3,2.13,5.64,4.73,8.31,7.23Z"/><path class="cls-3" d="m342.85,402.34l-.58-.25c-12.32-3.04-23.22-11.16-29.84-21.96l-1.85,2.21c-3.11,3.2-7.09,5.28-10.89,7.53-2.88,1.69-5.8,3.43-8.21,5.78-1.8,1.88-3.25,4.23-3.42,6.85l4.52-3.82c5.66-3.47,12.25-4.76,18.13-7.69,2.24-1.11,4.32-2.59,6.04-4.42-.88,2.14-2.46,3.93-4.03,5.56-2.92,2.88-6.24,5.29-9.31,7.95-2.19,1.89-4.26,3.97-5.66,6.49l-1.42,5.16.21.34c1.45-2.16,3.29-4.06,5.41-5.57,4.66-3.5,10.11-5.67,14.88-9.02,2.11-1.49,4-3.32,5.45-5.46-.63,2.63-2.19,4.93-3.81,7.06-2.41,3.1-5.21,5.86-7.71,8.91l-3.7,5.66c-.97,2.17-1.44,4.65-.92,6.98l1.22-2.29c1.36-2.31,3.25-4.24,5.2-6.02,2.17-1.93,4.5-3.69,6.81-5.49,2.73-2.18,5.5-4.43,7.53-7.32l1.67-2.89c-.34,3.38-2,6.43-3.68,9.3-2.11,3.47-4.5,6.73-6.35,10.34-1.23,2.43-2.21,5.12-2.11,7.91l.63,3.25,2.06-4.91c3.25-5.71,8.44-9.83,12.41-14.95,1.7-2.19,3.23-4.61,3.83-7.35l-.09,3.37c-.7,3.7-2.28,7.16-3.8,10.59-1.55,3.47-3.15,6.99-3.71,10.74-.43,2.54-.08,5.23,1.26,7.45.22-2.64,1.02-5.16,2.17-7.51,2.57-5.28,6.47-9.73,9.25-14.9,1.23-2.36,2.22-4.92,2.39-7.62Z"/><path class="cls-3" d="m302.36,375.58c2.26-.44,4.55-1.13,6.49-2.41l-1.01-2.79c-1.51-4.34-2.36-8.9-2.62-13.46-.05-2.69-.11-5.37.23-8.03.52-4.62,1.73-9.13,3.45-13.42l-2.82-.29-2.12-.22c-5.91-1.44-11.16-4.78-16.98-6.54l-5.95-.81-4.67,1.34,3.45.64c4.07,1.14,7.67,3.47,11.14,5.82,1.94,1.3,3.87,2.66,5.89,3.87,1.71,1.02,3.48,1.94,5.36,2.61l4.26.97c-1.08.2-2.16.29-3.25.29-3.17,0-6.35-.75-9.4-1.53-.57-.15-1.13-.3-1.7-.45-3.63-.97-7.29-1.99-11.06-2.1-.11,0-.23,0-.34,0-2.62,0-5.27.74-7.34,2.39.34-.02.68-.03,1.01-.03,2.59,0,5.18.49,7.64,1.32.92.31,1.83.65,2.72,1.01,4.11,1.68,8.01,3.86,12.21,5.35,2.4.9,4.92,1.4,7.48,1.4.19,0,.37,0,.56,0-2.08.85-4.33,1.03-6.57,1.03-.73,0-1.46-.02-2.18-.04-4.38-.16-8.76-.99-13.15-.99-.97,0-1.94.04-2.91.14-2.93.27-5.85,1.42-7.83,3.65l3.73-.46c.22,0,.43,0,.65,0,3.91,0,7.73,1.03,11.44,2.1,4.01,1.15,8,2.46,12.16,2.68l4.72-.32c-3.56,1.99-7.73,2.37-11.75,2.63-4.44.35-8.99.27-13.32,1.54-2.6.79-5.14,2.24-6.53,4.63l5.54-1.3c.92-.09,1.84-.12,2.77-.12,2.87,0,5.74.36,8.6.73,2.87.36,5.74.73,8.62.73.96,0,1.91-.04,2.87-.13l4.52-1.06-5.68,2.95c-3.3,1.14-6.73,1.74-10.11,2.5-3.25.74-6.56,1.52-9.46,3.18-2.03,1.14-3.78,2.88-4.7,5.05l2.9-1.39c3.6-1.39,7.49-1.72,11.28-1.88,3.92-.16,7.88-.11,11.76-.79Z"/><path class="cls-3" d="m309.57,382l2.85-1.87c-1.34-2.21-2.49-4.51-3.53-6.89l-4.8,3.62c-3.77,2.08-7.91,3.38-11.88,5.05-2.6,1.12-5.22,2.35-7.38,4.19-1.61,1.44-3.02,3.28-3.44,5.43,1.68-1.42,3.62-2.51,5.7-3.33,3.99-1.54,8.21-2.2,12.4-3.03,3.42-.7,6.97-1.48,10.08-3.18Z"/><path class="cls-3" d="m385.29,315.98c2.41,1.88,4.51,4.12,6.59,6.35l3.88-5.4c4.23-4.42,9.61-7.55,13.54-12.26,1.96-2.3,3.36-5.26,3.14-8.35l-4.63,5.17c-4.59,3.66-10.09,5.89-14.96,9.11-2.4,1.62-4.7,3.57-6.28,6.09l1.41-3.6c2.26-3.89,5.46-7.07,8.39-10.43,2.07-2.42,4.18-4.9,5.48-7.87.95-2.09,1.32-4.49.81-6.78-1.34,2.98-3.38,5.6-5.77,7.77-4.38,4.13-9.64,7.2-13.64,11.68l-2.96,4.51.24-1.72c.59-2.18,1.55-4.27,2.68-6.22,1.94-3.46,4.28-6.64,6.24-10.1,1.29-2.29,2.43-4.7,2.8-7.32l-.55-5.34c-.59,2.16-1.52,4.27-2.74,6.16-3.25,5.03-7.95,8.93-11.64,13.62-1.76,2.27-3.32,4.79-3.97,7.65l.78-6.06c1.06-3.52,2.66-6.85,4.13-10.23,1.19-2.81,2.37-5.69,2.77-8.75.05-.32.09-.63.12-.96.19-2.21-.22-4.48-1.4-6.39-.22,3.22-1.42,6.27-2.95,9.08-1.03,1.9-2.22,3.7-3.44,5.49-2.08,3.06-4.23,6.09-5.77,9.46l-1.66,5.75-.32-2.28c-.08-2.26.23-4.47.7-6.67.41-1.91.93-3.79,1.42-5.66.94-3.63,2.02-7.29,1.92-11.07l-1.42-5.73-.99-1.13-.32,4.94c-1.32,6.61-5.16,12.29-7.36,18.6-.71,2.07-1.28,4.25-1.27,6.45,0,.58.04,1.16.13,1.74,9.76.71,19.27,4.55,26.88,10.7Z"/><path class="cls-3" d="m409.88,368.22c-2.31-1.24-4.87-2.12-7.49-2.38l-.27.62c-.54,2.3-1.31,4.57-2.21,6.76.28-.02.55-.02.83-.02,3.33,0,6.59,1.14,9.65,2.38,4.33,1.77,8.5,4.02,13.07,5.09,1.15.28,2.36.44,3.56.44,1.89,0,3.75-.4,5.38-1.39l-5.52-1.34c-6.17-2.44-11.16-7.08-16.99-10.16Z"/><path class="cls-3" d="m426.17,365.71c-5.43-1.91-10.37-5.02-15.87-6.69-1.97-.61-4.03-.85-6.09-.85-.23,0-.45,0-.68,0-.25,2.54-.61,5.11-1.2,7.59l3.86-.25c7.08.31,13.62,3.56,20.68,4.06.39.03.78.05,1.17.05,2.64,0,5.33-.72,7.4-2.39-.32.01-.64.02-.95.02-2.83,0-5.65-.57-8.31-1.54Z"/><path class="cls-3" d="m406.12,376.09c-1.88-1.26-3.99-2.45-6.27-2.81-.92,2.39-2.23,4.6-3.4,6.84,2.2.2,4.28.99,6.26,1.92,4.2,2.1,7.98,4.98,12.05,7.29,2.28,1.28,4.69,2.44,7.3,2.84l5.48-.59c-4.17-.98-7.76-3.55-10.93-6.35-3.49-3.03-6.64-6.49-10.49-9.15Z"/><path class="cls-3" d="m411.55,395.25c-3-3.52-5.57-7.35-8.77-10.68-1.85-1.82-3.92-3.5-6.38-4.44-1.38,2.19-2.93,4.26-4.55,6.28l5.19,2.38c2.34,1.53,4.44,3.39,6.51,5.25,2.91,2.57,5.78,5.31,9.21,7.19,1.78.96,3.78,1.58,5.8,1.58.74,0,1.48-.08,2.22-.26-3.7-1.5-6.65-4.32-9.22-7.31Z"/><path class="cls-3" d="m432.51,354.81c-.25,0-.5.01-.75.01-2.63,0-5.24-.52-7.79-1.15-5.17-1.27-10.19-3.29-15.56-3.59l-4.76.31c2-1.08,4.22-1.72,6.45-2.08,3.96-.63,8-.63,11.98-.95,2.84-.26,5.73-.6,8.36-1.75l4.96-4.04-1.94.61c-2.07.6-4.25.8-6.42.8-.93,0-1.86-.04-2.78-.09-4.77-.33-9.57-1.35-14.38-1.35-1.12,0-2.24.05-3.36.19l-4.06,1.02,5.24-2.8c3.77-1.35,7.74-2.01,11.6-2.91,3.01-.7,6.03-1.53,8.69-3.11,1.86-1.15,3.56-2.77,4.36-4.87l-2.43,1.2c-3.19,1.32-6.67,1.76-10.08,1.99-3.71.19-7.42.17-11.12.55-3.06.34-6.09,1.07-8.74,2.64l5.59-4.08c3.07-1.56,6.32-2.71,9.51-3.97,2.93-1.19,5.92-2.45,8.42-4.42,1.86-1.49,3.39-3.5,3.98-5.84l-4.83,2.95c-6.59,2.88-13.94,2.89-20.69,5.34l-5.26,2.85,1.78-2.27c3.2-3.07,7.12-5.14,10.9-7.38,3.03-1.79,6.15-3.64,8.56-6.3,1.47-1.71,2.67-3.85,2.73-6.14l-4.03,3.48c-5.28,3.46-11.54,4.8-17.23,7.38-2.83,1.26-5.56,2.93-7.59,5.32,7.31,8.51,11.57,19.57,11.74,30.77l-.09,5.03,4.88-.99c.74-.05,1.47-.07,2.21-.07,3.21,0,6.4.39,9.58.72,1.85.18,3.72.34,5.58.34,1.69,0,3.37-.14,5.02-.52,2.17-.5,4.16-1.62,5.65-3.26l-3.92.42Z"/><path class="cls-3" d="m403.28,401.66c-2.39-4.12-4.41-8.48-7.58-12.06l-3.97-3.16c-7.89,9.27-19.35,15.42-31.45,16.8l-2.01.43,1.85,4.75c.64,2.93.82,5.95,1,8.93.19,3.82.31,7.72,1.41,11.42.79,2.64,2.32,5.19,4.69,6.63-.82-2.05-1.29-4.22-1.41-6.41-.09-2.58-.03-5.15.31-7.72.51-5.01,1.59-10.04.86-15.05l-.89-3.69c2.16,2.74,3.16,6.13,4,9.46,1.2,4.79,1.78,9.82,3.89,14.39,1.17,2.56,3.1,4.92,5.76,5.99-2.26-3.72-3-8.12-3.22-12.4l-.24-5.68c-.12-4.85-.44-9.91-2.89-14.23,1.77,1.57,3.02,3.61,4.11,5.7,1.2,2.36,2.12,4.85,3.09,7.33,1.32,3.4,2.63,6.9,4.8,9.9,1.53,2.1,3.66,3.9,6.26,4.44-2.15-2.49-3.5-5.57-4.37-8.71-1.48-5.22-1.93-10.68-3.61-15.83-.76-2.34-1.92-4.5-3.4-6.4,3.63,2.39,5.91,6.23,8.07,9.88,2.2,3.68,4.18,7.53,7.12,10.64,1.92,1.96,4.38,3.54,7.17,3.72-2.67-2.28-4.55-5.34-5.95-8.5-2.18-4.87-3.48-10.12-5.97-14.86l-4.04-5.32,5.26,3.72c2.02,2,3.79,4.21,5.56,6.4,2.33,2.83,4.63,5.75,7.64,7.91,1.87,1.36,4.15,2.29,6.47,2.29.27,0,.53-.01.8-.04-4.11-2.46-6.81-6.59-9.12-10.67Z"/><path class="cls-3" d="m354.81,403.56c-.14,0-.28,0-.42,0-.18,0-.37,0-.55,0-3.22,0-6.42-.36-9.56-1.01l-1.22-.19-.09.19.27,2.84c-.02,4.19-1.19,8.24-2.28,12.28-.9,3.52-1.9,7.08-1.79,10.76,0,2.49.8,5.02,2.4,6.96-.18-2.85.26-5.72,1.2-8.42,1.87-5.84,5.32-11.09,7.03-17.01.6-2.04.78-4.19.83-6.31.66,2.12,1.07,4.32,1,6.54.08,3.08-.31,6.14-.64,9.2-.31,3.6-.67,7.23,0,10.78.45,2.37,1.56,4.64,3.41,6.24,0,0,.01.01.02.02,0-.03-.01-.05-.02-.08-.73-3.05-.57-6.2,0-9.26.07-.4.16-.8.24-1.19.78-3.72,2.02-7.33,2.98-11.03.59-2.47,1.13-5.03,1.08-7.58l-.5-3.87-3.38.15Z"/><circle class="cls-3" cx="354.23" cy="353.93" r="42.13"/></g></svg>