<?xml version="1.0" encoding="UTF-8"?><svg id="Capa_2" xmlns="http://www.w3.org/2000/svg" viewBox="0 0 708.78 708.77"><defs><style>.cls-1{fill:#f6f6f6;}.cls-2{fill:#e52a18;}.cls-3{fill:#24356b;}</style></defs><g id="Capa_1-2"><path class="cls-1" d="m10.47,269.26C57.47,79.27,249.58-36.55,439.51,10.46c189.99,46.99,305.81,239.07,258.81,429.03-47.01,189.96-239.09,305.83-429.06,258.8C79.32,651.31-36.57,459.22,10.47,269.26"/><path class="cls-2" d="m682.1,219.64h-274.48v54.25h291.91c-4.35-18.59-10.21-36.73-17.43-54.25m-70.06-108.55h-204.43v54.3h246.48c-12.21-19.37-26.28-37.57-42.06-54.3M98.49,599.47h511.85c15.85-16.51,30.17-34.66,42.69-54.25H55.88c12.38,19.37,26.65,37.55,42.61,54.25M439.52,10.45c-10.64-2.64-21.28-4.73-31.91-6.36v52.75h139.32c-32.13-20.78-68.18-36.69-107.41-46.39m268.29,317.68h-300.2v54.3h300c1.48-18.26,1.51-36.41.19-54.3M27.46,490.98h653.9c6.85-16.46,12.54-33.65,16.95-51.49.24-.94.44-1.87.66-2.81H9.72c4.46,18.61,10.41,36.77,17.74,54.3m241.82,207.31c20.97,5.19,41.96,8.39,62.78,9.73h45.09c59.97-3.84,117.22-22.93,166.78-54.3H164.7c31.41,19.89,66.49,35.15,104.57,44.57"/><path class="cls-3" d="m380.75,362.54l-7.65-5.58-7.67,5.58,2.92-8.99-7.64-5.58h9.45l2.94-8.99,2.9,8.99h9.48l-7.64,5.58,2.92,8.99Zm-37.64-285.55l2.92,9.04-7.65-5.58-7.67,5.58,2.94-9.04-7.67-5.53h9.45l2.95-9.04,2.92,9.04h9.48l-7.67,5.53Zm0,81.58l2.92,8.99-7.65-5.58-7.67,5.58,2.94-8.99-7.67-5.58h9.45l2.95-8.99,2.92,8.99h9.48l-7.67,5.58Zm-.7,79.92l2.92,8.99-7.67-5.58-7.65,5.58,2.92-8.99-7.68-5.58h9.48l2.93-8.98,2.91,8.98h9.48l-7.64,5.58Zm2.22,87.99l-7.67-5.58-7.65,5.58,2.91-8.99-7.67-5.58h9.48l2.92-8.99,2.92,8.99h9.48l-7.67,5.58,2.94,8.99Zm-37.67-209.97l2.95,8.99-7.65-5.52-7.7,5.52,2.95-8.99-7.65-5.58h9.46l2.95-8.98,2.89,8.98h9.46l-7.65,5.58Zm0,79.05l2.95,8.99-7.65-5.58-7.7,5.58,2.95-8.99-7.65-5.58h9.46l2.95-8.99,2.89,8.99h9.46l-7.65,5.58Zm0,80.8l2.95,9.04-7.65-5.58-7.7,5.58,2.95-9.04-7.65-5.53h9.46l2.95-9.04,2.89,9.04h9.46l-7.65,5.53Zm2.95,86.18l-7.65-5.58-7.7,5.58,2.95-8.99-7.65-5.58h9.46l2.95-8.99,2.89,8.99h9.46l-7.65,5.58,2.95,8.99Zm-37.66-285.55l2.94,9.04-7.67-5.58-7.67,5.58,2.94-9.04-7.64-5.53h9.46l2.92-9.04,2.92,9.04h9.48l-7.67,5.53Zm0,81.58l2.94,8.99-7.67-5.58-7.67,5.58,2.94-8.99-7.64-5.58h9.46l2.92-8.99,2.92,8.99h9.48l-7.67,5.58Zm-.68,79.92l2.92,8.99-7.68-5.58-7.64,5.58,2.92-8.99-7.67-5.58h9.45l2.94-8.98,2.92,8.98h9.48l-7.65,5.58Zm2.2,87.99l-7.65-5.58-7.67,5.58,2.92-8.99-7.65-5.58h9.46l2.95-8.99,2.92,8.99h9.45l-7.64,5.58,2.92,8.99ZM236.14,37.52l2.92,8.99-7.65-5.58-7.67,5.58,2.92-8.99-7.64-5.58h9.47l2.92-8.99,2.92,8.99h9.48l-7.67,5.58Zm0,78.99l2.92,8.99-7.65-5.52-7.67,5.52,2.92-8.99-7.64-5.58h9.47l2.92-8.98,2.92,8.98h9.48l-7.67,5.58Zm0,79.05l2.92,8.99-7.65-5.58-7.67,5.58,2.92-8.99-7.64-5.58h9.47l2.92-8.99,2.92,8.99h9.48l-7.67,5.58Zm0,80.8l2.92,9.04-7.65-5.58-7.67,5.58,2.92-9.04-7.64-5.53h9.47l2.92-9.04,2.92,9.04h9.48l-7.67,5.53Zm2.92,86.18l-7.65-5.58-7.67,5.58,2.92-8.99-7.64-5.58h9.47l2.92-8.99,2.92,8.99h9.48l-7.67,5.58,2.92,8.99Zm-37.64-288.39l2.95,9.04-7.7-5.58-7.65,5.58,2.94-9.04-7.67-5.53h9.46l2.92-8.99,2.94,8.99h9.46l-7.65,5.53Zm0,81.58l2.95,8.99-7.7-5.53-7.65,5.53,2.94-8.99-7.67-5.58h9.46l2.92-8.99,2.94,8.99h9.46l-7.65,5.58Zm-.72,79.93l2.95,8.99-7.65-5.58-7.7,5.58,2.94-8.99-7.65-5.58h9.46l2.94-8.99,2.9,8.99h9.48l-7.67,5.58Zm2.25,88.04l-7.67-5.58-7.65,5.58,2.92-9.04-7.67-5.53h9.45l2.94-8.99,2.92,8.99h9.48l-7.65,5.53,2.92,9.04Zm-37.64-207.18l2.95,8.99-7.65-5.52-7.7,5.52,2.95-8.99-7.64-5.58h9.43l2.97-8.98,2.89,8.98h9.45l-7.65,5.58Zm0,79.05l2.95,8.99-7.65-5.58-7.7,5.58,2.95-8.99-7.64-5.58h9.43l2.97-8.99,2.89,8.99h9.45l-7.65,5.58Zm0,80.8l2.95,9.04-7.65-5.58-7.7,5.58,2.95-9.04-7.64-5.53h9.43l2.97-9.04,2.89,9.04h9.45l-7.65,5.53Zm2.95,86.18l-7.65-5.58-7.7,5.58,2.95-8.99-7.64-5.58h9.43l2.97-8.99,2.89,8.99h9.45l-7.65,5.58,2.95,8.99Zm-37.66-207.59l2.92,8.99-7.65-5.58-7.68,5.58,2.95-8.99-7.67-5.58h9.48l2.92-8.99,2.91,8.99h9.49l-7.67,5.58Zm-.7,79.93l2.92,8.99-7.64-5.58-7.67,5.58,2.92-8.99-7.65-5.58h9.45l2.95-8.99,2.89,8.99h9.48l-7.65,5.58Zm2.2,87.98l-7.65-5.58-7.65,5.58,2.92-8.99-7.67-5.58h9.48l2.92-8.99,2.94,8.99h9.46l-7.67,5.58,2.92,8.99ZM299.32,31.94l2.95-8.99,2.89,8.99h9.46l-7.65,5.58,2.95,8.99-7.65-5.58-7.7,5.58,2.95-8.99-7.65-5.58h9.46Zm70.83,238.9l2.94-9.04,2.9,9.04h9.47l-7.64,5.53,2.92,9.04-7.65-5.58-7.67,5.58,2.92-9.04-7.64-5.53h9.45Zm0-80.85l2.94-8.99,2.9,8.99h9.47l-7.64,5.58,2.92,8.99-7.65-5.58-7.67,5.58,2.92-8.99-7.64-5.58h9.45Zm0-79.05l2.94-8.98,2.9,8.98h9.47l-7.64,5.58,2.92,8.99-7.65-5.52-7.67,5.52,2.92-8.99-7.64-5.58h9.45Zm0-79l2.94-8.99,2.9,8.99h9.47l-7.64,5.58,2.92,8.99-7.65-5.58-7.67,5.58,2.92-8.99-7.64-5.58h9.45ZM94.47,195.56l2.92,8.99-7.67-5.58-7.64,5.58,2.92-8.99-7.67-5.58h9.45l2.95-8.99,2.92,8.99h9.48l-7.66,5.58Zm0,80.8l2.92,9.04-7.67-5.58-7.64,5.58,2.92-9.04-7.67-5.53h9.45l2.95-9.04,2.92,9.04h9.48l-7.66,5.53Zm2.92,86.18l-7.67-5.58-7.64,5.58,2.92-8.99-7.68-5.58h9.46l2.94-8.99,2.92,8.99h9.49l-7.66,5.58,2.92,8.99Zm-38.38-129.06l2.94,8.99-7.67-5.57-7.65,5.57,2.92-8.99-7.67-5.58h9.48l2.92-8.99,2.94,8.99h9.46l-7.67,5.58Zm2.24,87.98l-7.64-5.58-7.7,5.58,2.95-8.99-7.65-5.58h9.46l2.95-8.99,2.89,8.99h9.49l-7.68,5.58,2.94,8.99Zm-34.71,41.08l-7.65-5.58-7.67,5.58,2.92-8.99-7.65-5.58h9.48l2.92-8.99,2.95,8.99h9.43l-7.64,5.58,2.92,8.99ZM407.61,4.09c-3.48-.53-29.31-3.37-32.79-3.79l-63.69,2.35c-66.02,8.13-127.94,34.76-178.93,75.75l1.31,4.02-3.32-2.42c-11.72,9.56-22.84,19.9-33.3,30.94h5.23l-7.66,5.58,2.92,8.99-7.67-5.52-3.06,2.2c-7.15,8.23-13.93,16.82-20.32,25.74h1.06l-2.22,1.61c-1.55,2.19-3.08,4.4-4.58,6.63l2.05,6.33-4.22-3.05c-21.55,32.73-38.02,69.6-47.97,109.81-.13.52-.24,1.05-.37,1.58h5.88l2.92-9.04,2.95,9.04h9.43l-7.64,5.53,2.92,9.04-7.65-5.58-7.67,5.58,2.92-9.04-4.56-3.3C.86,309.99-1.74,346.96,1.16,382.9h406.46V4.09Z"/></g></svg>