<?xml version="1.0" encoding="utf-8"?>
<!-- Generator: Adobe Illustrator 27.4.1, SVG Export Plug-In . SVG Version: 6.00 Build 0)  -->
<svg version="1.1" id="Capa_2_00000100375342741069337700000016678040719548083866_"
	 xmlns="http://www.w3.org/2000/svg" xmlns:xlink="http://www.w3.org/1999/xlink" x="0px" y="0px" viewBox="0 0 255.2 255.2"
	 style="enable-background:new 0 0 255.2 255.2;" xml:space="preserve">
<style type="text/css">
	.st0{fill:#FFFFFF;}
	.st1{fill:#ED6B8F;}
</style>
<path class="st0" d="M127.7,0.6c-33.9,0-65.8,13.2-89.8,37.2S0.7,93.7,0.7,127.6s13.2,65.8,37.2,89.8s55.9,37.2,89.8,37.2
	s65.8-13.2,89.8-37.2s37.2-55.9,37.2-89.8s-13.2-65.8-37.2-89.8S161.6,0.6,127.7,0.6L127.7,0.6z"/>
<g>
	<path class="st1" d="M83.7,119.8c3.5-5.4,7.1-10.9,10.5-16.4c6.4-10.1,13-20.1,19.8-30.2c-3.3,7.2-6.8,14.7-10.4,22.5
		c-4.9,10.6-9.7,21.1-14.4,31.6c-4.7,10.5-9,20.6-12.9,30.3s-7,18.5-9.3,26.3c-2.2,7.8-3.4,14.4-3.5,19.8c-0.1,5.3,1.3,8.8,4.4,10.4
		c1.9,1.1,4,1.4,6.1,1s4.2-1.3,6.2-2.6s3.9-2.8,5.7-4.6c1.8-1.8,3.2-3.6,4.3-5.3c11.5-18.8,23.7-37.9,36.5-57.1
		c12.8-19.3,26.6-38.4,41.3-57.3c-4.5,9-8.9,18.4-13.3,28.2c-4.4,9.8-8.3,19.6-11.9,29.2c-3.5,9.7-6.3,19-8.5,28
		c-2.1,9-3.8,17.1-3.3,24.2c3.9,54.2,56,20.2,56,20.2c-42.9,24.4-41.1-22.5-40.2-28.2c1.2-7.5,3.4-15.9,6.5-25.1
		c3.1-9.2,6.7-18.7,10.8-28.3c4.1-9.7,8.4-19.2,13.1-28.6c4.7-9.4,9.2-18,13.6-25.9c4.4-7.8,8.4-14.5,12-20.1s6.5-9.4,8.6-11.5
		c0.1-0.5-0.1-1.2-0.5-2.3c-0.5-1-1.1-2.1-2-3.3c-0.8-1.1-1.8-2.3-3-3.5s-2.3-2.3-3.4-3.3c-1.1-1.1-2.2-1.9-3.5-2.5
		c-1.2-0.6-2.2-0.6-2.9,0c-15.8,17.7-30.3,36.2-43.4,55.6s-26,39-38.4,59.2c-4.3,6.9-8.6,13.8-12.9,20.6c-4.4,6.8-8.6,13.8-12.6,21
		c-0.5,0.7-1.2,1.8-2.1,3.2s-1.9,2.8-2.9,4.3s-2,2.8-3,3.9c-1,1.1-1.7,1.8-2.3,2c-0.5,0.2-0.8-0.3-0.8-1.4c0-1.1,0.5-3.1,1.6-6
		c2.9-8.5,5.9-16.5,8.9-24.1s6.2-15,9.5-22.4s6.7-14.8,10.1-22.2c3.5-7.5,7.1-15.3,10.8-23.6c3.8-8.3,7.7-17.1,11.8-26.5
		s8.3-19.8,12.8-31.1c0.2-1.2-0.3-2.8-1.1-4.9c-2.4-6.2-7.2-10.6-8.7-11.9s-3.1-2.4-4.6-3.2c-1.5-0.8-2.6-1-3.2-0.5
		c-1.2,2.8-4,8-8.3,15.6s-9.7,16.7-16.1,27.4c-6.5,10.6-13.8,22.5-22,35.5s-17,26.2-26.2,39.7c-13.9,23.9-21.6,32-29.2,42.9
		c-1.6,2.3-2.7,3.9-3.5,5c2.1,3.5,4.5,6.9,6.9,10.1c0.3-0.5,0.9-1.4,1.9-2.7L83.7,119.8z"/>
</g>
</svg>
