<?xml version="1.0" encoding="UTF-8"?><svg id="Capa_2" xmlns="http://www.w3.org/2000/svg" viewBox="0 0 71.01 76.24"><defs><style>.cls-1{fill:#ea1f1f;stroke-width:0px;}</style></defs><g id="Capa_1-2"><path class="cls-1" d="m66.02,14.74L30.52,0,0,23.38l4.99,38.12,35.51,14.74,30.52-23.38-4.99-38.12Zm-37.22,4.26c.12.19.27.36.42.52l-10.28,25.84c-.14.03-.27.08-.4.13L6.08,25.45l22.73-6.45Zm22.27,25.3l-26.86,3.31c-.34-.55-.78-1.02-1.3-1.39l9.94-24.98s.09.01.13.01c.59,0,1.15-.12,1.68-.31l16.95,21.93c-.24.45-.44.92-.53,1.44Zm-26.29,7.27l27.2-3.35-12.37,21.64-15.39-17c.25-.4.43-.83.56-1.29Zm30.43-11.24c-.15.02-.29.05-.44.09l-17.18-22.22c.07-.17.11-.35.16-.53l23.21.8-5.75,21.87Zm-17.98-26.68c-.64-1.04-1.64-1.81-2.83-2.17l-.9-5.91,20.88,8.67-17.15-.59Zm-6.81-1.67c-1.12.67-1.95,1.76-2.28,3.05l-16.96,4.81L29.49,5.83l.93,6.15Zm-14.95,36.14c-.31.65-.49,1.37-.49,2.13,0,.27.04.52.08.78l-6.69,5.49-3.28-25.1,10.39,16.7Zm1.76,6.3c.79.52,1.73.83,2.75.83.32,0,.62-.04.92-.09l12.5,13.8-22.5-9.34,6.33-5.2Zm38.23-4.22c.17.02.34.05.52.05,1.27,0,2.42-.49,3.3-1.27l6.37,2.94-19.89,15.24,9.69-16.96Zm10.86-2.38l-5.35-2.47s.01-.07.01-.1c0-1.59-.75-2.98-1.91-3.9l4.27-16.24,2.97,22.71Z"/></g></svg>