<?xml version="1.0" encoding="UTF-8"?><svg id="Capa_2" xmlns="http://www.w3.org/2000/svg" viewBox="0 0 800 264.32"><defs><style>.cls-1{fill:#862848;}</style></defs><g id="Capa_1-2"><path class="cls-1" d="m252.72,0l-50.45.07h.02s-184.47,0-184.47,0C7.98.08,0,8.06,0,17.9v228.57c0,9.84,7.98,17.82,17.82,17.82h66.37v-42.84h84.15v42.84h52.28l-.02.04h32.33v-15.63c.09-.73.15-1.47.15-2.22V17.9c0-1.23-.12-2.43-.36-3.58V0Zm-84.38,125.12c0,4.92-3.99,8.91-8.91,8.91h-66.33c-4.92,0-8.91-3.99-8.91-8.91v-26.16c0-4.92,3.99-8.91,8.91-8.91h66.33c4.92,0,8.91,3.99,8.91,8.91v26.16Z"/><path class="cls-1" d="m476.08.07h.02s-35.47.01-35.47.01l-40.36,40.36L359.68.08h-68.44c-9.84,0-17.82,7.98-17.82,17.82v228.57c0,9.84,7.98,17.82,17.82,17.82h13.27l-.02.04h32.33v-.04h21.04l-.19-85.61,42.21,42.21h.24l41.44-41.44.42,84.84h66.69c9.84,0,17.82-7.98,17.82-17.82V32.31l.03.02V0l-50.45.07Z"/><path class="cls-1" d="m799.9,16.04V0l-50.45.07h.02s-34.12.01-34.12.01l.19,86.49L631.18,1.11V.08h-66.44c-9.84,0-17.82,7.98-17.82,17.82v40.38s.08.01.11.02v147.77s-.08.01-.11.02v40.38c0,9.84,7.98,17.82,17.82,17.82h66.62l-.19-85.61,84.36,85.47v.15h66.64c9.84,0,17.82-7.98,17.82-17.82V17.9c0-.63-.03-1.25-.1-1.86Z"/></g></svg>