<?xml version="1.0" encoding="UTF-8"?><svg id="Capa_2" xmlns="http://www.w3.org/2000/svg" viewBox="0 0 328 232.3"><defs><style>.cls-1{fill:#fff;}.cls-2{fill:#0071bc;}.cls-3{fill:none;}.cls-4{fill:#29abe2;}</style></defs><g id="Object"><rect class="cls-3" x="8.31" y="62.98" width="6.29" height="21.47"/><path class="cls-3" d="m104.31,133.2c0,37,29.99,67,66.99,67s67-29.99,67-67-30-66.99-67-66.99-66.99,29.99-66.99,66.99Zm111.65,0c0,24.67-20,44.68-44.66,44.68s-44.67-20.01-44.67-44.68,20-44.66,44.67-44.66,44.66,19.98,44.66,44.66Z"/><path class="cls-4" d="m32.45,232.3h277.7c9.86,0,17.86-7.98,17.86-17.82V42.71c0-9.86-8-17.85-17.86-17.85h-8.16v-7.92c0-1.58-1.29-2.84-2.85-2.84h-44.26c-1.57,0-2.83,1.27-2.83,2.84v7.92h-33.53l-14.26-21.59c0-1.81-1.71-3.28-3.83-3.28h-58.24c-2.11,0-3.84,1.47-3.84,3.28l-14.24,21.59H32.45c-9.85,0-17.85,7.99-17.85,17.85v11.94h-7.07c-4.16,0-7.53,3.38-7.53,7.54v23.02c0,4.15,3.37,7.53,7.53,7.53h7.07v121.72c0,9.84,8,17.82,17.85,17.82ZM229.54,47.31h73.86v27.04h-73.86v-27.04Zm-58.24,18.9c37,0,67,29.99,67,66.99s-30,67-67,67-66.99-29.99-66.99-67,29.99-66.99,66.99-66.99ZM8.31,84.44v-21.47h6.29v21.47h-6.29Z"/><path class="cls-4" d="m126.63,133.2c0,24.67,20,44.68,44.67,44.68s44.66-20.01,44.66-44.68-20-44.66-44.66-44.66-44.67,19.98-44.67,44.66Z"/><rect class="cls-1" x="229.54" y="47.31" width="36.94" height="27.04"/><rect class="cls-2" x="266.48" y="47.31" width="36.93" height="27.04"/></g></svg>