<?xml version="1.0" encoding="UTF-8"?><svg id="Capa_2" xmlns="http://www.w3.org/2000/svg" viewBox="0 0 157.14 125.53"><defs><style>.cls-1{fill:#fff;}.cls-2{fill:#bababa;}.cls-3{fill:#d5ecf3;}.cls-4{fill:#eaeaea;}.cls-5{fill:#7f7f7f;}</style></defs><g id="Capa_2-2"><path class="cls-2" d="m155.16,82.28c-.28,4.33-2.1,8.22-3.6,12.19-2.19,5.79-5.88,10.59-10.11,14.98-1.47,1.52-3.26,2.74-4.91,4.09-.25-.07-.33.09-.4.28-.25.17-.5.34-.75.5-.25-.09-.32.08-.39.26-.25.16-.5.33-.75.49-.24-.06-.33.1-.4.29-3.27,2.07-6.81,3.61-10.43,4.92-2.55.92-5.12,2.16-7.75,2.35-3.94.28-7.55,1.99-11.58,1.99-2.43,0-5.02-.17-7.45.59-.17-.37-.47-.35-.79-.25-3.16-.04-6.33-.12-9.49-.09-4.92.05-9.76-.68-14.58-1.56-6.74-1.23-13.17-3.37-19.23-6.62-7.51-4.03-13.26-9.84-17.47-17.19-3.61-6.29-5.7-13.12-6.89-20.25-.95-5.67-1.15-11.38-1.18-17.11.17-.32.48-.35.8-.4,4.28-.63,8.41-2.14,11.46-5.02,2.76-2.61,5.15-3.96,8.68-2.16.17.34.46.34.78.28,4.88,1.75,9.87,3.16,14.84,4.63,3.36.99,6.67,2.16,10.13,2.8-.57,1,.19,1.95.13,2.93-.21,3.68.46,7.26,1.56,10.73,1.31,4.16,3.77,7.39,8.04,8.99,4.02,1.51,8.08,1.77,12.34,1.19,8.23-1.11,12.71-5.79,13.82-13.69.44,0,.9-.1,1.32,0,6.18,1.45,12.35,2.96,18.54,4.37,4.91,1.12,9.86,2.12,14.78,3.18,3.64.78,7.34,1.27,10.93,2.31h0Z"/><path class="cls-4" d="m47.96,54.56c-3.54-1.8-5.93-.45-8.68,2.16-3.05,2.88-7.18,4.39-11.46,5.02-.32.05-.62.08-.8.4-6.71.21-12.86-1.25-18.15-5.66-3.48-2.9-6-6.43-7.6-10.65-.11-.28-.28-.54-.43-.81-.37-2.61-.76-5.21-.83-7.87C-.32,25.57,8.59,14.98,20.34,13.22c6.14-.92,12.24-.12,17.57,3.66.65.46,1.25,1.09,2.12,1.18-.1,1.02.8,1.39,1.35,1.91,4.57,4.28,6.91,9.58,7.32,15.76.06.99.64,1.3,1.32,1.59,6.05,2.59,12.08,5.22,18.18,7.7,2.45.99,4.75,2.47,7.49,2.63-1.11,4.82-1.45,9.74-2.01,14.64-3.46-.64-6.77-1.81-10.13-2.8-4.97-1.47-9.96-2.87-14.84-4.63-.1-.53-.26-.89-.78-.28l.03-.02ZM5.77,37.92c.23,9.42,8.06,18.76,18.44,18.37,11.61-.43,18.6-8.08,18.66-18.53.06-10.63-7.88-18.46-18.49-18.56-10.87-.11-18.47,8.44-18.61,18.71h0Z"/><path class="cls-4" d="m155.16,82.28c-3.59-1.04-7.29-1.53-10.93-2.31-4.93-1.06-9.87-2.06-14.78-3.18-6.19-1.41-12.36-2.93-18.54-4.37-.42-.1-.88,0-1.32,0,.81-3.91.49-7.93,1.14-11.86,12.12,3.86,24.32,7.46,36.66,10.56,3.06.77,6.07,1.94,9.3,1.98-.12,1.41-.23,2.82-.35,4.23-.77,1.56-.26,3.42-1.17,4.95h0Z"/><path class="cls-3" d="m95.85,124.96c.32-.1.62-.12.79.25-.48.61-.66.26-.79-.25Z"/><path class="cls-1" d="m136.15,113.82c.07-.19.15-.35.4-.28-.13.09-.26.18-.4.28Z"/><path class="cls-1" d="m135.01,114.58c.07-.18.14-.35.39-.26-.13.09-.26.17-.39.26Z"/><path class="cls-1" d="m133.86,115.36c.07-.19.16-.35.4-.29-.13.1-.27.19-.4.29Z"/><path class="cls-5" d="m156.69,73.1c-3.23-.04-6.23-1.21-9.3-1.98-12.34-3.09-24.54-6.7-36.66-10.56-.33-.41-.41-.88-.41-1.41.04-3.01-.44-5.96-1.14-8.87-1.31-5.43-4.27-9.37-9.93-10.79-1.51-.38-3.09-.41-4.62-.66-4.13-.68-8.1-.09-11.92,1.38-3.45,1.33-5.51,4.15-7,7.42-2.75-.16-5.05-1.64-7.49-2.63-6.1-2.47-12.13-5.11-18.18-7.7-.69-.29-1.26-.6-1.32-1.59-.4-6.18-2.75-11.48-7.32-15.76-.55-.52-1.45-.89-1.35-1.91,2.7-3.33,5.98-5.98,9.55-8.31,5.68-3.7,11.98-5.78,18.51-7.31,6.66-1.56,13.4-2.12,20.24-2.34,12.45-.41,24.63.66,36.4,4.97,5.83,2.14,11.1,5.17,15.75,9.4,8.48,7.7,12.83,17.52,14.98,28.45.75,3.84,1.02,7.79,1.35,11.72.35,4.3.38,8.57.21,12.85-.07,1.87-.3,3.75-.34,5.63h0Z"/><path class="cls-1" d="m75.7,47.63c1.49-3.27,3.55-6.09,7-7.42,3.82-1.47,7.78-2.05,11.92-1.38,1.53.25,3.11.28,4.62.66,5.66,1.42,8.62,5.37,9.93,10.79.7,2.91,1.18,5.86,1.14,8.87,0,.53.08.99.41,1.41-.65,3.93-.33,7.95-1.14,11.86-1.11,7.9-5.59,12.58-13.82,13.69-4.26.58-8.32.31-12.34-1.19-4.27-1.6-6.73-4.84-8.04-8.99-1.1-3.47-1.77-7.05-1.56-10.73.06-.98-.7-1.93-.13-2.93.56-4.89.9-9.82,2.01-14.64h0Z"/><path class="cls-3" d="m47.96,54.56c.51-.61.68-.25.78.28-.31.06-.61.06-.78-.28Z"/><path class="cls-2" d="m5.77,37.92c.13-10.27,7.74-18.82,18.61-18.71,10.61.11,18.55,7.93,18.49,18.56-.06,10.45-7.05,18.09-18.66,18.53-10.38.39-18.21-8.95-18.44-18.37h0Z"/></g></svg>