<?xml version="1.0" encoding="UTF-8"?><svg id="Capa_2" xmlns="http://www.w3.org/2000/svg" viewBox="0 0 255.24 255.24"><defs><style>.cls-1{fill:#ed6b8f;}</style></defs><g id="Capa_1-2"><path class="cls-1" d="M127.62,0C57.14,0,0,57.14,0,127.62c0,24.37,6.83,47.14,18.68,66.51,.84-1.23,2.04-2.99,3.98-5.77,7.59-10.87,15.28-19.05,29.18-42.9,9.23-13.47,17.96-26.7,26.18-39.69,8.22-12.99,15.56-24.82,22.01-35.46,6.46-10.65,11.83-19.77,16.12-27.37,4.3-7.59,7.06-12.78,8.29-15.56,.63-.52,1.69-.36,3.2,.48,1.5,.84,3.02,1.92,4.57,3.24,1.55,1.32,6.31,5.66,8.73,11.89,.83,2.13,1.33,3.71,1.09,4.92-4.49,11.29-8.78,21.65-12.84,31.06-4.07,9.41-7.99,18.25-11.75,26.51-3.77,8.26-7.38,16.12-10.85,23.59-3.46,7.47-6.83,14.88-10.11,22.23-3.28,7.35-6.43,14.82-9.47,22.4-3.03,7.6-6.01,15.64-8.93,24.14-1.09,2.91-1.64,4.91-1.64,6.01s.27,1.55,.82,1.36c.54-.19,1.3-.85,2.28-2,.97-1.16,1.97-2.46,3-3.92,1.03-1.45,2.01-2.88,2.91-4.28,.91-1.39,1.61-2.46,2.1-3.19,4.01-7.17,8.2-14.15,12.57-20.96,4.37-6.8,8.68-13.66,12.94-20.59,12.39-20.16,25.17-39.9,38.35-59.21,13.18-19.31,27.66-37.83,43.45-55.56,.73-.61,1.71-.61,2.92,0,1.21,.61,2.36,1.45,3.46,2.55,1.09,.97,2.21,2.06,3.37,3.28s2.16,2.4,3.01,3.55c.85,1.16,1.51,2.25,2,3.28,.48,1.03,.67,1.79,.55,2.28-2.07,2.07-4.92,5.89-8.56,11.48-3.65,5.59-7.66,12.3-12.02,20.13-4.37,7.83-8.9,16.46-13.57,25.86-4.68,9.41-9.05,18.95-13.12,28.61-4.07,9.65-7.65,19.1-10.75,28.33-3.09,9.24-5.26,17.61-6.46,25.15-.92,5.7-2.64,52.67,40.21,28.25,0,0-52.03,34.02-55.97-20.23-.52-7.14,1.16-15.24,3.28-24.23,2.13-8.99,4.95-18.31,8.47-27.97,3.52-9.65,7.47-19.4,11.85-29.24,4.37-9.84,8.8-19.25,13.3-28.24-14.7,18.94-28.45,38.04-41.27,57.3-12.82,19.25-24.99,38.29-36.52,57.11-1.1,1.71-2.53,3.46-4.28,5.29-1.76,1.82-3.64,3.37-5.65,4.65-2,1.28-4.07,2.12-6.19,2.55-2.13,.42-4.17,.09-6.11-1-3.03-1.59-4.49-5.05-4.37-10.39,.12-5.34,1.3-11.94,3.55-19.77,2.25-7.84,5.34-16.61,9.29-26.32,3.94-9.72,8.26-19.83,12.94-30.33,4.68-10.5,9.47-21.04,14.4-31.61,3.62-7.77,7.07-15.25,10.39-22.5-6.77,10.03-13.37,20.08-19.79,30.16-3.49,5.47-7.01,10.92-10.55,16.36L28.05,200.78c-1.97,2.72-2.37,3.36-2.4,3.46,.17-.18-.03,.08,0,0-.01,.01-.03,.03-.05,.05,23.29,30.94,60.32,50.94,102.02,50.94,70.48,0,127.62-57.14,127.62-127.62S198.1,0,127.62,0Z"/></g></svg>