<?xml version="1.0" encoding="UTF-8"?><svg id="Capa_2" xmlns="http://www.w3.org/2000/svg" viewBox="0 0 101.74 101.74"><defs><style>.cls-1{fill:#73beb4;}</style></defs><g id="Capa_1-2"><path class="cls-1" d="m101.74,50.67l-5.4-5.45c1.55-1.73,2.64-3.82,2.64-6.28v-8.19l-.22-.3c-.28-.37-6.83-8.94-13.02-9.03-.37-.05-3.12-.34-6.14.72,1.06-3.02.77-5.77.72-6.14-.09-6.19-8.67-12.74-9.03-13.02l-.3-.22h-8.19c-2.46,0-4.55,1.08-6.28,2.64l-5.51-5.4-5.45,5.4c-1.73-1.55-3.82-2.64-6.28-2.64h-8.19l-.3.22c-.37.28-8.94,6.83-9.03,13.02-.05.38-.35,3.21.77,6.28-3.16-1.22-6.13-.91-6.52-.86-6.19.09-12.74,8.67-13.02,9.03l-.22.3v8.19c0,2.46,1.08,4.55,2.64,6.28l-5.4,5.51,5.4,5.45c-1.55,1.73-2.64,3.82-2.64,6.28v8.19l.22.3c.28.37,6.83,8.94,13.02,9.03.39.05,3.45.37,6.67-.92-1.29,3.22-.97,6.27-.92,6.67.09,6.19,8.67,12.74,9.03,13.02l.3.22h8.19c2.46,0,4.55-1.08,6.28-2.64l5.51,5.4,5.45-5.4c1.73,1.55,3.82,2.64,6.28,2.64h8.19l.3-.22c.37-.28,8.94-6.83,9.03-13.02.05-.39.36-3.36-.86-6.52,3.07,1.12,5.9.82,6.28.77,6.19-.09,12.74-8.67,13.02-9.03l.22-.3v-8.19c0-2.46-1.08-4.55-2.64-6.28l5.4-5.51Zm-3.03-.01l-3.9,3.98v-.07l-.07.07c-1.26-1.07-6.68-4.1-6.68-4.1,1.97-.66,5.35-2.65,6.68-3.78l.07.07v-.07l3.9,3.9Zm-11.97-26.9c3.85.82,8.27,5.52,10.02,7.74v7.44c0,1.79-.8,3.37-1.99,4.72l-8.04-8.04v-11.87Zm-.15,14.85l6.59,6.59c-3.17,2.59-7.4,4.08-8.25,4.36h-6.62c3.52-1.9,7.48-5.26,8.29-10.95Zm-21.39,45.91c-.41,0-.8-.03-1.18-.07-2.89-.37-9.05-2.35-11.83-12.34v-18.47l13.69,13.69c6.81,8.92.06,16.41-.68,17.19Zm-15.3-30.87v18.47c-2.78,9.99-8.94,11.97-11.83,12.34-.38.04-.77.06-1.18.07-.74-.77-7.48-8.27-.68-17.19l13.69-13.69Zm-13.01-36.43c.41,0,.8.03,1.18.07,2.89.37,9.05,2.35,11.83,12.34v18.47l-13.69-13.69c-6.81-8.92-.06-16.41.68-17.19Zm29.5,16.48l-14.2,14.2v-18.28c2.78-9.99,8.94-11.97,11.83-12.34.38-.04.77-.06,1.18-.07.72.75,7.13,7.87,1.19,16.48Zm-18.29,15.86h-18.47c-9.99-2.78-11.97-8.94-12.34-11.83-.04-.38-.06-.77-.07-1.18.77-.74,8.27-7.48,17.19-.68l13.69,13.69Zm0,2.29l-13.69,13.69c-8.92,6.81-16.41.06-17.19-.68,0-.41.03-.8.07-1.18.37-2.89,2.35-9.05,12.34-11.83h18.47Zm5.56,0h18.47c9.99,2.78,11.97,8.94,12.34,11.83.04.38.06.77.07,1.18-.77.74-8.27,7.48-17.19.68l-13.69-13.69Zm.2-2.29l14.2-14.2c8.6-5.94,15.73.47,16.48,1.19,0,.41-.03.8-.07,1.18-.37,2.89-2.35,9.05-12.34,11.83h-18.28Zm30.68-25.98v10.15c-2.27-1.6-6.74-3.94-12.13-2.72l4.47-4.47c.28-.28.53-.56.77-.85,2.44-1.87,5.4-2.12,6.89-2.11Zm-8.47.53c-.29.24-.58.49-.85.77l-4.47,4.47c1.22-5.39-1.13-9.85-2.72-12.13h10.15c.01,1.49-.24,4.45-2.11,6.89Zm-13.26-19.13h7.44c2.23,1.75,6.93,6.17,7.74,10.02h-11.87l-8.04-8.04c1.35-1.18,2.93-1.99,4.72-1.99Zm-6.25,3.59l6.59,6.59c-5.69.81-9.05,4.77-10.95,8.29v-6.62c.28-.85,1.77-5.09,4.36-8.25Zm-9.45-1.64l3.9-3.9,3.98,3.9h-.07l.07.07c-1.07,1.26-4.1,6.68-4.1,6.68-.66-1.97-2.65-5.35-3.78-6.68l.07-.07h-.07Zm2.79,9.89v6.62c-1.9-3.52-5.26-7.48-10.95-8.29l6.59-6.59c2.59,3.17,4.08,7.4,4.36,8.25ZM31.84,4.98h7.44c1.79,0,3.37.8,4.72,1.99l-8.04,8.04h-11.87c.82-3.85,5.52-8.27,7.74-10.02Zm-7.93,12.24h10.15c-1.62,2.31-4.01,6.87-2.67,12.38l-4.62-4.62c-2.56-2.56-2.87-6.08-2.86-7.76Zm-6.69,6.36c1.67-.01,5.19.3,7.76,2.86l4.62,4.62c-5.5-1.35-10.07,1.04-12.38,2.67v-10.15Zm6.23,25.98h-6.62c-.85-.28-5.09-1.77-8.25-4.36l6.59-6.59c.81,5.69,4.77,9.05,8.29,10.95Zm-18.46-10.61v-7.44c1.75-2.23,6.17-6.93,10.02-7.74v11.87s-8.04,8.04-8.04,8.04c-1.18-1.35-1.99-2.93-1.99-4.72Zm-1.95,11.8l3.9-3.98v.07l.07-.07c1.26,1.07,6.68,4.1,6.68,4.1-1.97.66-5.35,2.65-6.68,3.78l-.07-.07v.07l-3.9-3.9Zm11.97,26.9c-3.85-.82-8.27-5.52-10.02-7.74v-7.44c0-1.79.8-3.37,1.99-4.72l8.04,8.04v11.87Zm.15-14.85l-6.59-6.59c3.17-2.59,7.4-4.08,8.25-4.36h6.62c-3.52,1.9-7.48,5.26-8.29,10.95Zm2.06,15.03v-10.15c2.31,1.62,6.87,4.01,12.38,2.67l-4.62,4.62c-2.56,2.56-6.08,2.87-7.76,2.86Zm9.55-1.06l4.62-4.62c-1.35,5.5,1.04,10.07,2.67,12.38h-10.15c-.01-1.67.3-5.19,2.86-7.76Zm12.5,19.99h-7.44c-2.23-1.75-6.93-6.17-7.74-10.02h11.87l8.04,8.04c-1.35,1.18-2.93,1.99-4.72,1.99Zm6.25-3.59l-6.59-6.59c5.69-.81,9.05-4.77,10.95-8.29v6.62c-.28.85-1.77,5.09-4.36,8.25Zm9.45,1.64l-3.9,3.9-3.98-3.9h.07l-.07-.07c1.07-1.26,4.1-6.68,4.1-6.68.66,1.97,2.65,5.35,3.78,6.68l-.07.07h.07Zm-2.79-9.89v-6.62c1.9,3.52,5.26,7.48,10.95,8.29l-6.59,6.59c-2.59-3.17-4.08-7.4-4.36-8.25Zm18.05,11.84h-7.44c-1.79,0-3.37-.8-4.72-1.99l8.04-8.04h11.87c-.82,3.85-5.52,8.27-7.74,10.02Zm7.93-12.24h-10.15c1.62-2.31,4.01-6.87,2.67-12.38l4.62,4.62c2.56,2.56,2.87,6.08,2.86,7.76Zm6.36-6.69c-1.67.01-5.19-.3-7.76-2.86l-4.62-4.62c5.5,1.35,10.07-1.04,12.38-2.67v10.15Zm-6.23-25.98h6.62c.85.28,5.09,1.77,8.25,4.36l-6.59,6.59c-.81-5.69-4.77-9.05-8.29-10.95Zm18.46,10.61v7.44c-1.75,2.23-6.17,6.93-10.02,7.74v-11.87l8.04-8.04c1.18,1.35,1.99,2.93,1.99,4.72Z"/></g></svg>