<?xml version="1.0" encoding="utf-8"?>
<!-- Generator: Adobe Illustrator 27.4.1, SVG Export Plug-In . SVG Version: 6.00 Build 0)  -->
<svg version="1.1" id="Capa_2_00000119838551591516618500000014886815214055626112_"
	 xmlns="http://www.w3.org/2000/svg" xmlns:xlink="http://www.w3.org/1999/xlink" x="0px" y="0px" viewBox="0 0 303.6 327.9"
	 style="enable-background:new 0 0 303.6 327.9;" xml:space="preserve">
<style type="text/css">
	.st0{fill:url(#SVGID_1_);}
	.st1{fill:#02A7BC;}
	.st2{fill:#E62142;}
	.st3{fill:#00953C;}
	.st4{fill:#00020F;}
	.st5{fill:#F7B319;}
	.st6{fill:#0178C0;}
</style>
<g>
	<g>
		<linearGradient id="SVGID_1_" gradientUnits="userSpaceOnUse" x1="0" y1="255.245" x2="139.1" y2="255.245">
			<stop  offset="0" style="stop-color:#FFFFFF;stop-opacity:0"/>
			<stop  offset="1" style="stop-color:#02A7BC"/>
		</linearGradient>
		<path class="st0" d="M0,313.5c68.7-30.4,116.1-90.9,139.1-130.9l-1.4,4C119.2,239.3,68.5,296.8,8.4,327.9
			C8.4,327.9,0,313.5,0,313.5z"/>
	</g>
</g>
<path class="st1" d="M166.9,181.9c8.3-2.4,14.3-7.4,18.2-12.5c-5.3-2.9-12.9-5.5-21.5-4.8c-8.7,0.8-15.8,5.7-18.2,12.5
	C151.7,182.8,158.6,184.3,166.9,181.9"/>
<path class="st1" d="M146,152.8c-2.1-8.4-6.9-14.6-11.8-18.6c-3.1,5.2-6,12.7-5.5,21.3c0.5,8.8,5.1,16,11.8,18.6
	C146.4,168.1,148.1,161.2,146,152.8"/>
<path class="st1" d="M211,117.9c8.8-5,14.4-12.2,17.4-19c-6.8-1.9-16.1-2.9-25.8,0.2c-9.8,3.2-16.5,10.6-17.4,19
	C193.9,122.9,202.2,122.9,211,117.9"/>
<path class="st2" d="M277.9,69c8.8-5,14.4-12.2,17.4-19c-6.8-1.9-16.1-2.9-25.8,0.2c-9.8,3.2-16.5,10.6-17.4,19
	C260.8,74,269.1,74,277.9,69"/>
<path class="st3" d="M292.1,23.1c7.1-7.2,10.4-15.7,11.5-23.1c-7.1,0.1-16.3,1.6-24.7,7.3c-8.5,5.8-12.9,14.8-11.5,23.1
	C277.1,32.6,285,30.3,292.1,23.1"/>
<path class="st1" d="M193.4,151.7c8.3-5.9,13-13.7,15.3-20.7c-7-1.2-16.3-1.2-25.6,2.9c-9.4,4.2-15.2,12.3-15.3,20.7
	C176.9,158.4,185.2,157.5,193.4,151.7"/>
<path class="st4" d="M224.1,79.9c6.5-7.8,9-16.6,9.4-24c-7,0.7-16.1,3-24,9.5c-8,6.5-11.6,15.8-9.4,24
	C209.9,90.7,217.6,87.7,224.1,79.9"/>
<path class="st5" d="M174.4,52.9c1.6-10,6.6-17.7,11.9-22.9c4.1,5.8,8.3,14.2,8.6,24.3c0.3,10.3-4.4,19.1-11.9,22.9
	C175.5,70.7,172.7,62.8,174.4,52.9"/>
<path class="st6" d="M211.9,22.1c5.6-8.5,13.2-13.5,20.2-16c1.4,6.9,1.8,16.3-2,25.7c-3.9,9.5-11.8,15.7-20.2,16
	C205.8,38.9,206.4,30.6,211.9,22.1"/>
<path class="st1" d="M159.3,91.7c-0.1-10.2,3.4-18.6,7.7-24.6c5,5,10.6,12.5,12.7,22.4c2.1,10-1,19.6-7.8,24.6
	C163.5,109,159.4,101.8,159.3,91.7"/>
<path class="st1" d="M145.4,128.3c0.4-10.1,4.4-18.3,9-24.1c4.8,5.2,9.9,13,11.5,23.1c1.6,10.1-2,19.5-9,24.1
	C148.6,145.9,144.9,138.4,145.4,128.3"/>
<path class="st1" d="M144.3,205.9c2.6-4.1-4.2-7.8-2.4-10.6c0.7-1.1,2.2-1,3.9,0.1c1.1,0.7,2.1,1.7,2.7,2.6l1.2-1.6
	c-0.8-1.1-1.8-2-3-2.8c-2.6-1.7-5.7-1.9-7.3,0.5c-2.6,4.1,4.2,7.8,2.4,10.6c-0.9,1.4-2.8,0.7-4.1-0.2c-1.1-0.7-2.2-1.7-3-2.8
	l-1.2,1.6c0.6,0.9,1.7,1.9,2.8,2.6C139,207.8,142.5,208.7,144.3,205.9"/>
<path class="st1" d="M127.1,191.6c-2.3,3-5.2,3.6-8,1.5c-0.5-0.4-1-0.8-1.4-1.2l7-9.5c0.6,0.3,1.1,0.7,1.6,1.1
	C129.2,185.6,129.4,188.5,127.1,191.6 M129.2,192.6c2.8-3.8,2.1-7.7-1.5-10.4c-1.3-1-2.7-1.9-3.8-2.5l-9,12.1
	c0.8,0.8,1.8,1.7,2.8,2.4C121.7,197.3,125.9,197.1,129.2,192.6"/>
<path class="st1" d="M127.1,174.1c2.3,5.1,6.3,9.7,11.8,13c5.5,3.2,11.5,4.5,17.1,4c-5.5-0.3-11.1-2-16.4-5.1
	C134.3,182.9,130.1,178.8,127.1,174.1"/>
</svg>
