<?xml version="1.0" encoding="UTF-8"?><svg id="Capa_2" xmlns="http://www.w3.org/2000/svg" viewBox="0 0 143.52 134.76"><defs><style>.cls-1{fill:#e76d68;}</style></defs><g id="Capa_1-2"><path class="cls-1" d="m141.29,60.45c-2.66-2.46-6.18-3.18-9.58-3.58-25.04-2.98-51.59,4.13-72.82,19.53-5.29,3.84-11.13,8.41-15.91,13.56,1.03-6.54,1.09-13.47,1.02-19.74-.18-17.44-4.02-34.88-11.11-50.43-2.51-5.51-6.17-12.43-12.2-17.11C18.11.69,15.72-.18,13.37.03c-3.9.35-6.85,3.38-8.76,9-1.77,5.21-3.02,10.6-3.77,16.06C-.88,37.56.05,50.42,3.67,62.48c3.31,11.05,8.98,21.65,16.4,30.67,4.56,5.55,9.42,10.58,14.19,10.54-.05.16-.12.32-.17.49-3.44,11.28-8.15,19.47-15.24,26.41.69.9,1.42,1.78,2.23,2.59.62.61,1.29,1.13,1.99,1.59,7.24-7.14,12.34-15.6,15.98-26.59,5.37,3.32,12.22,4.85,19.48,4.3,5.94-.45,12.24-2.19,19.81-5.51,10.67-4.65,20.62-10.83,30.24-16.79l30.58-18.94c1.14-.71,4.61-2.85,4.35-6.59-.12-1.52-.89-2.98-2.22-4.21Z"/></g></svg>