<?xml version="1.0" encoding="UTF-8"?><svg id="Capa_2" xmlns="http://www.w3.org/2000/svg" viewBox="0 0 173.73 174.74"><defs><style>.cls-1{fill:#2935d3;}</style></defs><g id="Layer_1"><path class="cls-1" d="m50.22,10.24C61.35,4.63,73.56,1.18,85.97,0c5.49.64,11.02.18,16.53.08,11.68,1.04,23.07,4.29,33.59,9.46,7.9,3.55,14.56,9.17,20.97,14.9,6.65,6.34,12.02,13.92,16.67,21.81-.76,1.25-1.62,2.43-2.52,3.57-10.51-11.92-26.26-17.8-41.71-19.74-4.14-.68-8.43-1.04-12.55-.12-19.65,1.85-38.39,11.46-50.53,27.18-1.75,2.21-3.49,4.47-4.82,6.97-.75,1.3-1.47,2.63-2.13,3.98-3.78,6.38-5.75,13.67-6.47,21.03-.55,4.78-1.42,9.79-.12,14.54,1.77,12.26,7.24,23.86,15.46,33.11.25.28.74.83.98,1.1,1.47,1.61,3.35,2.75,5.13,3.98,1.57,1.9,3.5,3.48,5.63,4.72,9.76,6.57,21.28,9.99,32.94,11,3.48.68,6.98.7,10.48.06,6.04-.6,12.1-1.5,17.78-3.75.57,1.53,1.01,3.11,1.43,4.7-13.18,9.44-29.21,14.2-45.15,16.16-5.85-.32-11.7-.29-17.55-.11-23.99-2.43-47.05-14.31-62.23-33.15-5.22-7.17-9.77-14.86-12.78-23.22-3.03-7.9-3.74-16.38-5-24.67.11-3.42.21-6.8.67-10.18.13-1.53.4-4.59.54-6.12.29-3.61,1.18-7.13,1.89-10.66,1.41-3.6,2.83-7.21,3.99-10.9.98-2.02,1.98-4.03,2.77-6.14,5.7-9.04,11.76-17.95,19.73-25.18.7-.64,1.41-1.27,2.11-1.9.45-.34,1.35-1.02,1.81-1.36,1.43-1.06,2.71-2.29,4.02-3.48,4.15-2.61,8.39-5.06,12.69-7.43Z"/></g></svg>