<?xml version="1.0" encoding="utf-8"?>
<!-- Generator: Adobe Illustrator 27.5.0, SVG Export Plug-In . SVG Version: 6.00 Build 0)  -->
<svg version="1.1" id="Capa_2_00000016044286043441686520000012121999204735933842_"
	 xmlns="http://www.w3.org/2000/svg" xmlns:xlink="http://www.w3.org/1999/xlink" x="0px" y="0px" viewBox="0 0 159 159.4"
	 style="enable-background:new 0 0 159 159.4;" xml:space="preserve">
<style type="text/css">
	.st0{fill:#4BB9B8;}
	.st1{fill:#D5ECF3;}
	.st2{fill:#FFFFFF;}
	.st3{fill:#36828C;}
</style>
<path class="st0" d="M156.3,99.7c-0.3,4.3-2.1,8.2-3.6,12.2c-2.2,5.8-5.9,10.6-10.1,15c-1.5,1.5-3.3,2.7-4.9,4.1
	c-0.2-0.1-0.3,0.1-0.4,0.3c-0.2,0.2-0.5,0.3-0.8,0.5c-0.2-0.1-0.3,0.1-0.4,0.3c-0.2,0.2-0.5,0.3-0.8,0.5c-0.2-0.1-0.3,0.1-0.4,0.3
	c-3.3,2.1-6.8,3.6-10.4,4.9c-2.6,0.9-5.1,2.2-7.8,2.4c-3.9,0.3-7.6,2-11.6,2c-2.4,0-5-0.2-7.4,0.6c-0.2-0.4-0.5-0.4-0.8-0.2
	c-3.2,0-6.3-0.1-9.5-0.1c-4.9,0.1-9.8-0.7-14.6-1.6c-6.7-1.2-13.2-3.4-19.2-6.6c-7.5-4-13.3-9.8-17.5-17.2
	c-3.6-6.3-5.7-13.1-6.9-20.2c-1-5.7-1.1-11.4-1.2-17.1c0.2-0.3,0.5-0.3,0.8-0.4c4.3-0.6,8.4-2.1,11.5-5c2.8-2.6,5.2-4,8.7-2.2
	c0.2,0.3,0.5,0.3,0.8,0.3c4.9,1.8,9.9,3.2,14.8,4.6c3.4,1,6.7,2.2,10.1,2.8c-0.6,1,0.2,1.9,0.1,2.9c-0.2,3.7,0.5,7.3,1.6,10.7
	c1.3,4.2,3.8,7.4,8,9c4,1.5,8.1,1.8,12.3,1.2c8.2-1.1,12.7-5.8,13.8-13.7c0.4,0,0.9-0.1,1.3,0c6.2,1.4,12.3,3,18.5,4.4
	c4.9,1.1,9.9,2.1,14.8,3.2C149,98.1,152.7,98.6,156.3,99.7L156.3,99.7z"/>
<path class="st1" d="M49.1,71.9c-3.5-1.8-5.9-0.4-8.7,2.2c-3,2.9-7.2,4.4-11.5,5c-0.3,0.1-0.6,0.1-0.8,0.4
	c-6.7,0.2-12.9-1.2-18.1-5.7C6.5,71,4,67.4,2.4,63.2c-0.1-0.3-0.3-0.5-0.4-0.8c-0.4-2.6-0.8-5.2-0.8-7.9
	C0.8,42.9,9.7,32.4,21.5,30.6c6.1-0.9,12.2-0.1,17.6,3.7c0.7,0.5,1.2,1.1,2.1,1.2c-0.1,1,0.8,1.4,1.3,1.9c4.6,4.3,6.9,9.6,7.3,15.8
	c0.1,1,0.6,1.3,1.3,1.6c6,2.6,12.1,5.2,18.2,7.7c2.4,1,4.8,2.5,7.5,2.6c-1.1,4.8-1.4,9.7-2,14.6c-3.5-0.6-6.8-1.8-10.1-2.8
	c-5-1.5-10-2.9-14.8-4.6C49.7,71.7,49.6,71.3,49.1,71.9L49.1,71.9z M6.9,55.3c0.2,9.4,8.1,18.8,18.4,18.4
	c11.6-0.4,18.6-8.1,18.7-18.5c0.1-10.6-7.9-18.5-18.5-18.6C14.6,36.5,7,45,6.9,55.3L6.9,55.3z"/>
<path class="st1" d="M156.3,99.7c-3.6-1-7.3-1.5-10.9-2.3c-4.9-1.1-9.9-2.1-14.8-3.2c-6.2-1.4-12.4-2.9-18.5-4.4
	c-0.4-0.1-0.9,0-1.3,0c0.8-3.9,0.5-7.9,1.1-11.9c12.1,3.9,24.3,7.5,36.7,10.6c3.1,0.8,6.1,1.9,9.3,2c-0.1,1.4-0.2,2.8-0.4,4.2
	C156.7,96.3,157.2,98.1,156.3,99.7L156.3,99.7z"/>
<path class="st1" d="M97,142.3c0.3-0.1,0.6-0.1,0.8,0.2C97.3,143.2,97.1,142.8,97,142.3z"/>
<path class="st2" d="M137.3,131.2c0.1-0.2,0.1-0.4,0.4-0.3C137.5,131,137.4,131.1,137.3,131.2z"/>
<path class="st2" d="M136.1,132c0.1-0.2,0.1-0.4,0.4-0.3C136.4,131.8,136.2,131.9,136.1,132z"/>
<path class="st2" d="M135,132.7c0.1-0.2,0.2-0.4,0.4-0.3C135.2,132.6,135.1,132.6,135,132.7z"/>
<path class="st3" d="M157.8,90.5c-3.2,0-6.2-1.2-9.3-2c-12.3-3.1-24.5-6.7-36.7-10.6c-0.3-0.4-0.4-0.9-0.4-1.4c0-3-0.4-6-1.1-8.9
	c-1.3-5.4-4.3-9.4-9.9-10.8c-1.5-0.4-3.1-0.4-4.6-0.7c-4.1-0.7-8.1-0.1-11.9,1.4c-3.4,1.3-5.5,4.2-7,7.4c-2.8-0.2-5.1-1.6-7.5-2.6
	c-6.1-2.5-12.1-5.1-18.2-7.7c-0.7-0.3-1.3-0.6-1.3-1.6c-0.4-6.2-2.8-11.5-7.3-15.8c-0.5-0.5-1.5-0.9-1.3-1.9c2.7-3.3,6-6,9.5-8.3
	c5.7-3.7,12-5.8,18.5-7.3c6.7-1.6,13.4-2.1,20.2-2.3c12.4-0.4,24.6,0.7,36.4,5c5.8,2.1,11.1,5.2,15.7,9.4c8.5,7.7,12.8,17.5,15,28.4
	c0.8,3.8,1,7.8,1.4,11.7c0.4,4.3,0.4,8.6,0.2,12.8C158.1,86.7,157.8,88.6,157.8,90.5L157.8,90.5z"/>
<path class="st1" d="M49.1,71.9c0.5-0.6,0.7-0.2,0.8,0.3C49.5,72.3,49.2,72.3,49.1,71.9z"/>
<path class="st0" d="M6.9,55.3C7,45,14.6,36.5,25.5,36.6C36.1,36.7,44,44.5,44,55.2c-0.1,10.4-7,18.1-18.7,18.5
	C14.9,74.1,7.1,64.7,6.9,55.3L6.9,55.3z"/>
</svg>
