<?xml version="1.0" encoding="utf-8"?>
<!-- Generator: Adobe Illustrator 26.2.1, SVG Export Plug-In . SVG Version: 6.00 Build 0)  -->
<svg version="1.1" id="Capa_1" xmlns="http://www.w3.org/2000/svg" xmlns:xlink="http://www.w3.org/1999/xlink" x="0px" y="0px"
	 viewBox="0 0 600 221.7" style="enable-background:new 0 0 600 221.7;" xml:space="preserve">
<style type="text/css">
	.st0{fill:#BEE2E9;}
	.st1{fill:#37828C;}
	.st2{fill:#4FB9B9;}
</style>
<path class="st0" d="M105.2,66.5C92.9,61.6,80.4,56.4,68,50.8C67.3,32,51.5,17.4,32.7,18.1C13.9,18.8-0.7,34.6,0,53.3
	S16.5,86.7,35.3,86c9.6-0.4,18.7-4.8,24.8-12.2c14.3,4.6,28.4,8.9,42.2,12.8C102.2,79.8,103.2,73,105.2,66.5z"/>
<path class="st0" d="M153.3,83.7c0,5.4-0.4,10.9-1.2,16.3c21.8,5.4,42.9,10,63.2,13.9c0.4-2,1.5-8.5,1.8-12.2
	C196.3,96.7,175,90.8,153.3,83.7z"/>
<path class="st1" d="M68,50.8c12.4,5.6,24.8,10.8,37.1,15.7c0.7-2,1.7-3.8,3-5.5c3.9-5,10.5-7.5,19.7-7.5s15.8,2.5,19.7,7.4
	c3.6,4.6,5.5,12.2,5.8,22.8c21.6,7,42.9,12.9,63.8,18c0.4-4.8,0.7-9.8,0.7-15.1c0-21.2-3.6-38.2-10.7-50.8
	c-6.9-12.4-17.7-22-30.8-27.4C162.9,2.8,146.8,0,127.8,0S92.7,2.8,79.3,8.5c-9.2,3.8-17.3,9.7-23.8,17.3C63.1,31.9,67.6,41,68,50.8z
	"/>
<path class="st2" d="M152.3,100.1c-1,5.3-2.6,9.4-4.8,12.3c-3.9,5-10.5,7.4-19.7,7.4c-9.2,0-15.8-2.5-19.7-7.4
	c-3.9-4.9-5.9-13.5-5.9-25.7c-13.8-4-27.8-8.2-42.1-12.8c-5.6,6.7-13.6,11-22.3,12c0,0.3,0,0.5,0,0.8c0,21,3.6,37.9,10.7,50.6
	c6.8,12.4,17.7,22.1,30.8,27.5c13.4,5.7,29.6,8.5,48.5,8.5c19,0,35.1-2.8,48.5-8.5c13.1-5.4,23.9-15.1,30.8-27.5
	c4-7.3,6.8-15.2,8.3-23.4C195.1,110,174.1,105.4,152.3,100.1z"/>
<path class="st1" d="M291.3,116.1V99.9c1.5-1.5,3.2-2.8,5.2-3.6c1.9-0.9,3.9-1.4,6-1.5c5.6,0,8.4,2.7,8.4,8.1v15.9
	c21.3,2.7,41.8,4.6,61.4,5.8V95.1c0-15.2-3.3-26.6-9.8-34.1s-17-11.3-31.4-11.3c-8.3-0.1-16.5,0.9-24.5,2.9
	c-6.2,1.5-12.2,3.6-17.9,6.5l-1.3-6.8h-57.6v52.4C250.9,109.4,271.4,113.1,291.3,116.1z"/>
<path class="st2" d="M310.8,128.1v44.4h61.4v-39.9C353,131.8,332.5,130.3,310.8,128.1z"/>
<path class="st2" d="M229.9,116.6v55.9h61.4v-46.6C271.7,123.5,251.2,120.4,229.9,116.6z"/>
<rect x="397.3" y="0" class="st1" width="65.7" height="42.4"/>
<path class="st1" d="M401.6,125.9c22.1,0.6,42.6,0.4,61.4-0.4V52.3H390l-5.1,44.1h16.7L401.6,125.9z"/>
<path class="st2" d="M401.6,133.3v39.2H463v-40.9C444.6,132.8,424.1,133.5,401.6,133.3z"/>
<path class="st1" d="M539.2,119c-0.6-2.1-0.9-4.4-0.9-6.6c0-6.9,2.1-11.8,6.3-14.6s10.7-4.2,19.5-4.2c6.1,0,12.3,0.6,18.3,1.8
	c5.9,1.2,11.6,3.1,17,5.8V58.6c-7.2-3.4-14.9-5.7-22.8-7c-8.6-1.3-17.4-2-26.1-1.9c-14.7,0-27.7,2.2-38.9,6.7
	c-11.2,4.5-20,11.3-26.4,20.6c-6.3,9.2-9.5,21-9.5,35.4c0,4.2,0.3,8.3,0.9,12.5C501.4,123.5,522.5,121.2,539.2,119z"/>
<path class="st2" d="M583,128.5c-5.9,1.8-12.1,2.7-18.3,2.7c-8.8,0-15.4-1.4-19.8-4.3c-1.9-1.2-3.4-2.9-4.5-4.9
	c-20.7,3.9-41.7,6.7-62.7,8.5c1.5,6.1,4,12,7.6,17.2c6.4,9.3,15.3,16.2,26.6,20.7c11.3,4.5,24.4,6.7,39.1,6.8
	c8.8,0.1,17.5-0.6,26.1-2c7.9-1.3,15.5-3.6,22.8-6.9v-44.7C594.6,124.4,588.9,126.7,583,128.5z"/>
<circle class="st2" cx="34" cy="52.3" r="25.6"/>
<path class="st0" d="M310.8,118.9v9.2c21.7,2.2,42.3,3.7,61.6,4.5v-7.9C352.8,123.5,332.2,121.6,310.8,118.9z"/>
<path class="st0" d="M229.9,104.7v11.9c21.3,3.8,41.8,6.9,61.4,9.3v-9.7C271.4,113.1,250.9,109.4,229.9,104.7z"/>
<path class="st0" d="M477.7,130.5c21.1-1.8,42.1-4.6,62.9-8.5c-0.5-1-0.9-2-1.3-3c-16.8,2.3-37.9,4.5-62.7,5.9
	C477,127.2,477.4,129.1,477.7,130.5z"/>
<path class="st0" d="M463,125.5c-18.8,0.8-39.4,1-61.5,0.4v7.4c22.5,0.2,43-0.5,61.5-1.7V125.5z"/>
<path class="st0" d="M74.4,221.5v-19.6h8.5c1.7,0,3.4,0.3,5,1c1.4,0.7,2.5,1.8,3.1,3.2c0.8,1.8,1.1,3.8,1.1,5.7
	c0,3.4-0.8,5.8-2.3,7.4s-3.8,2.4-6.9,2.4H74.4z M79.3,217.7h2.9c0.9,0,1.8-0.1,2.7-0.5c0.8-0.4,1.3-1,1.6-1.8
	c0.4-1.2,0.6-2.4,0.6-3.7c0-1.3-0.1-2.5-0.5-3.8c-0.3-0.8-0.8-1.5-1.5-1.9c-0.9-0.4-1.8-0.6-2.8-0.5h-3V217.7z"/>
<path class="st0" d="M97.6,221.5v-19.6h4.9v19.6H97.6z"/>
<path class="st0" d="M114.9,221.7c-1.2,0-2.4-0.1-3.6-0.3c-1-0.2-2-0.4-2.9-0.8v-4.1c1,0.4,2,0.7,3,0.9c1,0.2,2,0.4,3.1,0.4
	c0.9,0,1.8-0.1,2.7-0.3c0.6-0.2,1-0.8,0.9-1.4c0-0.4-0.1-0.9-0.4-1.2c-0.4-0.4-0.9-0.6-1.4-0.8c-0.7-0.2-1.6-0.5-2.7-0.8
	c-1.1-0.3-2.2-0.8-3.2-1.4c-0.7-0.4-1.3-1-1.7-1.8c-0.4-0.8-0.5-1.7-0.5-2.6c-0.1-1.7,0.7-3.3,2-4.3c1.8-1.1,3.8-1.6,5.9-1.5
	c1.1,0,2.2,0.1,3.3,0.3c0.9,0.1,1.8,0.3,2.6,0.6v4.2c-1.7-0.7-3.4-1-5.2-1c-0.9,0-1.8,0.1-2.7,0.3c-0.6,0.2-1.1,0.8-1,1.4
	c0,0.4,0.1,0.7,0.4,1c0.4,0.3,0.8,0.6,1.3,0.7c0.6,0.2,1.4,0.4,2.4,0.7c1.3,0.3,2.5,0.8,3.7,1.5c0.8,0.5,1.4,1.2,1.8,2.1
	c0.3,0.8,0.5,1.7,0.5,2.6c0,1.6-0.7,3.2-2,4.2C119.8,221.2,117.7,221.7,114.9,221.7z"/>
<path class="st0" d="M132.5,221.5v-15.9h-5.8v-3.8h16.4v3.8h-5.8v15.9H132.5z"/>
<path class="st0" d="M148.4,221.5v-19.6h9.8c2.3,0,4,0.6,5.1,1.8c1.1,1.4,1.7,3.1,1.6,4.9c0,1.2-0.3,2.4-1,3.5
	c-0.7,1-1.6,1.8-2.7,2.2c0.3,0.2,0.5,0.5,0.7,0.8c0.2,0.4,0.4,0.7,0.6,1.1l2.3,5.3h-5.1l-2.2-5c-0.1-0.4-0.4-0.7-0.7-0.9
	c-0.4-0.2-0.8-0.3-1.2-0.3h-2.2v6.2H148.4z M153.3,211.5h3.6c0.8,0,1.6-0.2,2.2-0.7c0.6-0.6,0.9-1.4,0.8-2.2c0-2-0.9-2.9-2.8-2.9
	h-3.8V211.5z"/>
<path class="st0" d="M170.4,221.5v-19.6h4.9v19.6H170.4z"/>
<path class="st0" d="M181.5,221.5v-19.6h10.3c1.6-0.1,3.2,0.4,4.4,1.4c1.6,1.8,2,4.4,0.9,6.6c-0.4,0.7-0.9,1.2-1.6,1.6
	c0.8,0.3,1.5,0.8,2.1,1.4c0.6,0.8,0.8,1.8,0.8,2.8c0.1,1.6-0.5,3.2-1.6,4.3c-1.3,1.1-3,1.6-4.8,1.5H181.5z M186.4,209.8h4
	c0.7,0.1,1.3-0.1,1.9-0.6c0.4-0.4,0.6-1,0.6-1.6c0-0.6-0.2-1.2-0.6-1.7c-0.6-0.4-1.4-0.6-2.1-0.6h-3.7L186.4,209.8z M186.4,218h4.5
	c0.7,0.1,1.4-0.1,2-0.6c0.5-0.5,0.7-1.2,0.6-1.9c0-0.6-0.2-1.2-0.6-1.7c-0.6-0.4-1.4-0.6-2.2-0.6h-4.3V218z"/>
<path class="st0" d="M212.9,221.7c-1.6,0-3.3-0.3-4.8-0.9c-1.3-0.5-2.4-1.4-3.1-2.6c-0.8-1.3-1.2-2.8-1.1-4.3v-12.1h4.9v11.7
	c-0.1,1.1,0.3,2.2,1.1,3c1.8,1.3,4.3,1.3,6.1,0c0.8-0.8,1.1-1.9,1.1-3v-11.7h4.9V214c0,1.5-0.3,3-1.1,4.3c-0.8,1.2-1.9,2.1-3.1,2.6
	C216.1,221.5,214.5,221.8,212.9,221.7z"/>
<path class="st0" d="M227.8,221.5v-19.6h4.9v19.6H227.8z"/>
<path class="st0" d="M238.9,221.5v-19.6h8.5c1.7,0,3.4,0.3,5,1c1.4,0.7,2.5,1.8,3.1,3.2c0.8,1.8,1.1,3.8,1.1,5.8
	c0,3.4-0.8,5.8-2.3,7.4s-3.8,2.3-6.8,2.3H238.9z M243.8,217.7h2.9c0.9,0,1.8-0.1,2.7-0.5c0.8-0.4,1.3-1,1.7-1.8
	c0.4-1.2,0.6-2.4,0.6-3.7c0-1.3-0.1-2.5-0.5-3.8c-0.3-0.8-0.8-1.5-1.6-1.9c-0.9-0.4-1.8-0.6-2.8-0.5h-2.9V217.7z"/>
<path class="st0" d="M271.2,221.7c-3.2,0-5.6-0.8-7.3-2.4s-2.5-4.1-2.5-7.6c0-3.6,0.8-6.2,2.5-7.8c1.7-1.6,4.1-2.4,7.3-2.4
	s5.6,0.8,7.3,2.4s2.5,4.2,2.5,7.8c0,3.4-0.8,6-2.5,7.6S274.4,221.7,271.2,221.7z M271.2,217.6c1.4,0.1,2.7-0.4,3.6-1.4
	c0.9-1.3,1.3-2.9,1.1-4.4c0-2.2-0.4-3.7-1.1-4.6c-2.1-1.8-5.2-1.8-7.2,0c-0.8,0.9-1.1,2.4-1.1,4.6c-0.1,1.6,0.3,3.1,1.1,4.4
	C268.5,217.2,269.9,217.7,271.2,217.6L271.2,217.6z"/>
<path class="st0" d="M286.5,221.5v-19.6h9.8c2.3,0,4,0.6,5.1,1.8c1.2,1.4,1.7,3.1,1.6,4.9c0,1.2-0.3,2.4-1,3.5
	c-0.7,1-1.6,1.8-2.7,2.2c0.3,0.2,0.5,0.5,0.7,0.8c0.2,0.4,0.4,0.7,0.6,1.1l2.3,5.3h-5.1l-2.2-5c-0.1-0.4-0.4-0.7-0.7-0.9
	c-0.4-0.2-0.8-0.3-1.2-0.3h-2.2v6.2H286.5z M291.4,211.5h3.7c0.8,0,1.6-0.2,2.2-0.7c0.6-0.6,0.9-1.4,0.8-2.2c0-2-1-2.9-2.8-2.9h-3.8
	L291.4,211.5z"/>
<path class="st0" d="M306.6,221.5l7.5-19.6h5.3l7.5,19.6h-5.1L320,217h-6.5l-1.7,4.4H306.6z M314.1,213.4h5.2l-2.6-6.8L314.1,213.4z
	"/>
<path class="st0" d="M342,221.5v-19.6h4.9v19.6H342z"/>
<path class="st0" d="M353,221.5v-19.6h4.2l8.3,11.7v-11.7h4.9v19.6h-4.2l-8.3-11.7v11.7H353z"/>
<path class="st0" d="M376.6,221.5v-19.6h14.2v3.8h-9.3v4.1h8.2v3.8h-8.2v7.9H376.6z"/>
<path class="st0" d="M404.9,221.7c-3.2,0-5.6-0.8-7.3-2.4c-1.7-1.6-2.5-4.1-2.5-7.6c0-3.6,0.8-6.2,2.5-7.8c1.7-1.6,4.1-2.4,7.3-2.4
	c3.2,0,5.6,0.8,7.3,2.4s2.5,4.2,2.5,7.8c0,3.4-0.8,6-2.5,7.6S408.1,221.7,404.9,221.7z M404.9,217.6c1.4,0.1,2.7-0.4,3.6-1.4
	c0.9-1.3,1.3-2.9,1.1-4.4c0-2.2-0.4-3.7-1.1-4.6c-2.1-1.8-5.2-1.8-7.2,0c-0.8,0.9-1.1,2.4-1.1,4.6c-0.1,1.6,0.3,3.1,1.1,4.4
	C402.2,217.2,403.6,217.7,404.9,217.6L404.9,217.6z"/>
<path class="st0" d="M420.2,221.5v-19.6h9.8c2.3,0,4,0.6,5.1,1.8c1.2,1.4,1.7,3.1,1.6,4.9c0,1.2-0.3,2.4-1,3.5
	c-0.7,1-1.6,1.8-2.7,2.2c0.3,0.2,0.5,0.5,0.7,0.8c0.2,0.4,0.4,0.7,0.6,1.1l2.3,5.3h-5.1l-2.2-5c-0.1-0.4-0.4-0.7-0.7-0.9
	c-0.4-0.2-0.8-0.3-1.2-0.3h-2.3v6.2H420.2z M425.1,211.5h3.6c0.8,0,1.6-0.2,2.2-0.7c0.6-0.6,0.9-1.4,0.8-2.2c0-2-0.9-2.9-2.8-2.9
	h-3.8V211.5z"/>
<path class="st0" d="M442.3,221.5v-19.6h4.8l5.3,10.9l5.3-10.9h4.8v19.6h-4.9v-11.3l-3.9,7.9h-2.7l-3.9-7.9v11.3H442.3z"/>
<path class="st0" d="M468.1,221.5l7.5-19.6h5.3l7.5,19.6h-5.1l-1.8-4.4h-6.5l-1.7,4.4H468.1z M475.6,213.4h5.2l-2.6-6.8L475.6,213.4
	z M476.2,200.5l2.5-6h4l-2.8,6H476.2z"/>
<path class="st0" d="M495.8,221.5v-15.9h-5.7v-3.8h16.4v3.8h-5.8v15.9H495.8z"/>
<path class="st0" d="M511.7,221.5v-19.6h4.9v19.6H511.7z"/>
<path class="st0" d="M532.6,221.7c-3.4,0-6-0.9-7.8-2.6c-1.9-2-2.9-4.6-2.7-7.3c0-3.3,0.9-5.8,2.6-7.6s4.4-2.7,7.9-2.7
	c1.1,0,2.1,0.1,3.2,0.3c0.9,0.2,1.8,0.4,2.7,0.7v4.3c-1.8-0.7-3.7-1.1-5.6-1.1c-1.6-0.1-3.2,0.4-4.5,1.5c-1.1,1.3-1.6,2.9-1.4,4.6
	c-0.1,1.6,0.4,3.2,1.5,4.4c1.2,1,2.8,1.5,4.4,1.4c0.9,0,1.9-0.1,2.8-0.3c0.9-0.2,1.8-0.4,2.7-0.8v4.3c-0.9,0.3-1.8,0.5-2.7,0.7
	C534.8,221.6,533.7,221.7,532.6,221.7z"/>
<path class="st0" d="M542.9,221.5l7.5-19.6h5.3l7.5,19.6H558l-1.8-4.4h-6.5l-1.7,4.4H542.9z M550.4,213.4h5.2l-2.6-6.8L550.4,213.4z
	"/>
</svg>
