<?xml version="1.0" encoding="utf-8"?>
<!-- Generator: Adobe Illustrator 27.4.1, SVG Export Plug-In . SVG Version: 6.00 Build 0)  -->
<svg version="1.1" id="Capa_2_00000033371201602950391930000013284817700112373671_"
	 xmlns="http://www.w3.org/2000/svg" xmlns:xlink="http://www.w3.org/1999/xlink" x="0px" y="0px" viewBox="0 0 143.5 134.8"
	 style="enable-background:new 0 0 143.5 134.8;" xml:space="preserve">
<style type="text/css">
	.st0{fill:#6B9CA8;}
</style>
<g id="Capa_1-2">
	<path class="st0" d="M141.3,60.5c-2.7-2.5-6.2-3.2-9.6-3.6c-25-3-51.6,4.1-72.8,19.5C53.6,80.2,47.8,84.8,43,90
		c1-6.5,1.1-13.5,1-19.7c-0.2-17.4-4-34.9-11.1-50.4c-2.5-5.5-6.2-12.4-12.2-17.1c-2.6-2-5-2.9-7.3-2.7C9.5,0.4,6.5,3.4,4.6,9
		c-1.8,5.2-3,10.6-3.8,16.1c-1.7,12.5-0.8,25.3,2.8,37.4c3.3,11,9,21.6,16.4,30.7c4.6,5.6,9.4,10.6,14.2,10.5c0,0.2-0.1,0.3-0.2,0.5
		c-3.4,11.3-8.1,19.5-15.2,26.4c0.7,0.9,1.4,1.8,2.2,2.6c0.6,0.6,1.3,1.1,2,1.6c7.2-7.1,12.3-15.6,16-26.6
		c5.4,3.3,12.2,4.8,19.5,4.3c5.9-0.4,12.2-2.2,19.8-5.5C89,102.3,99,96.1,108.6,90.2l30.6-18.9c1.1-0.7,4.6-2.8,4.4-6.6
		C143.4,63.1,142.6,61.7,141.3,60.5L141.3,60.5z"/>
</g>
</svg>
